<?xml version="1.0" encoding="utf-8"?>
<!-- Generator: Adobe Illustrator 24.0.1, SVG Export Plug-In . SVG Version: 6.00 Build 0)  -->
<svg version="1.1" id="Layer_1" xmlns="http://www.w3.org/2000/svg" xmlns:xlink="http://www.w3.org/1999/xlink" x="0px" y="0px"
	 viewBox="0 0 50 72.7" style="enable-background:new 0 0 50 72.7;" xml:space="preserve">
<style type="text/css">
	.st0{fill:#020202;}
</style>
<g>
	<g>
		<path d="M19.8,7.2c2.7,2.4,5.3,4.8,8,7.2c0.5,0.4,1.1,0.4,1.6,0c0.4-0.4,0.5-1.2,0-1.6c-2.7-2.4-5.3-4.8-8-7.2
			c-0.5-0.4-1.1-0.4-1.6,0C19.3,6,19.3,6.8,19.8,7.2L19.8,7.2z"/>
	</g>
</g>
<g>
	<g>
		<path d="M31.4,19.1c1.6,3.2,3.2,6.4,4.8,9.6c0.3,0.5,1,0.7,1.5,0.4c0.6-0.3,0.7-1,0.4-1.5c-1.6-3.2-3.2-6.4-4.8-9.6
			c-0.3-0.5-1-0.7-1.5-0.4C31.2,17.9,31.1,18.6,31.4,19.1L31.4,19.1z"/>
	</g>
</g>
<g>
	<g>
		<path d="M37,36.4c-0.3,4.1-0.5,8.3-0.8,12.4c-0.1,1.4,2.2,1.4,2.3,0c0.3-4.1,0.5-8.3,0.8-12.4C39.3,35,37.1,35,37,36.4L37,36.4z"
			/>
	</g>
</g>
<g>
	<g>
		<path d="M15.3,2.5C11.4,2.2,7.6,1.9,3.8,1.6c-0.6,0-1.1,0.6-1.1,1.1c0,0.6,0.5,1.1,1.1,1.1c3.8,0.3,7.7,0.6,11.5,0.9
			c0.6,0,1.1-0.6,1.1-1.1C16.4,2.9,15.9,2.5,15.3,2.5L15.3,2.5z"/>
	</g>
</g>
<g>
	<path class="st0" d="M25.2,53.7c2.4,0.1,4.7,1.3,7,2.1c4.7,1.7,9.7,2.1,14.7,2.7c0.3,0,0.6,0.1,0.6,0.4c0.1,0.2,0,0.4-0.1,0.5
		c-1.5,2.5-4,4.3-6.4,6c-2.6,1.9-5.2,3.8-7.8,5.6c-2.8-5.2-5.6-10.4-8.2-15.6c-0.2-0.4-0.4-0.8-0.3-1.2c0.1-0.4,0.7-0.7,1-0.4"/>
	<g>
		<path d="M25.2,54.4c3.3,0.3,6.4,2.1,9.6,3c3.2,0.8,6.5,1.2,9.8,1.6c0.4,0.1,0.8,0.1,1.2,0.2c0.2,0,0.4,0.1,0.6,0.1
			c0.3-0.3,0.3-0.3,0.2-0.1c-0.2,0.7-1.1,1.4-1.5,1.9c-1.1,1.2-2.4,2.1-3.7,3.1c-2.9,2.1-5.7,4.1-8.6,6.2c0.3,0.1,0.7,0.2,1,0.3
			c-1.5-2.7-3-5.4-4.4-8.2c-0.7-1.3-1.4-2.6-2-3.9c-0.4-0.7-0.7-1.4-1.1-2.2C26.1,56,25.7,54.7,25.2,54.4c0.9,0.5,1.7-0.8,0.8-1.3
			c-1.1-0.7-2.3,0.4-2.1,1.5c0.1,0.8,0.6,1.6,1,2.3c0.5,1,1,2,1.5,3c2,3.9,4,7.7,6.1,11.5c0.2,0.3,0.7,0.5,1,0.3
			c3.3-2.4,6.6-4.7,9.8-7.1c1-0.8,6.9-5.4,4.1-6.6c-0.7-0.3-1.6-0.3-2.3-0.4c-1-0.1-1.9-0.2-2.9-0.4c-2-0.3-4-0.6-5.9-1
			c-1.9-0.4-3.7-1-5.5-1.7c-1.8-0.7-3.7-1.4-5.7-1.6C24.3,52.8,24.3,54.3,25.2,54.4L25.2,54.4z"/>
	</g>
</g>
</svg>
