<?xml version="1.0" encoding="utf-8"?>
<!-- Generator: Adobe Illustrator 24.0.1, SVG Export Plug-In . SVG Version: 6.00 Build 0)  -->
<svg width="100%" height="100%" version="1.1" id="Layer_1" xmlns="http://www.w3.org/2000/svg" xmlns:xlink="http://www.w3.org/1999/xlink" x="0px" y="0px"
	 viewBox="0 0 270.6 154.1" style="enable-background:new 0 0 270.6 154.1;" preserveAspectRatio="none">
<style type="text/css">
	.st10{fill:#000EB7;}
</style>
<g>
	<path class="st10" d="M4.1,138.6c-0.4-0.4-0.6-0.9-0.6-1.4l0-0.3C7.7,96.2,9.3,55.4,8.4,14.5l0.2-0.6C77.5,5.1,147.1,2.8,216.4,6.9
		c16.6,1,33.5,2.4,48.8,9.1l1.6,1.5c2.2,10.5,0,21.4-1.6,32.1c-4.5,29.4-4.5,59.5,0,89l-1,2c-14.3,3.7-29.1,4.6-43.9,5.5
		c-71.9,4.4-144.9,8.6-215.1-7.1"/>
	<g>
		<path d="M4.7,138.1c-0.7-0.8-0.3-1.9-0.2-2.8c0.1-1,0.2-2.1,0.3-3.1c0.2-2.1,0.4-4.2,0.6-6.2c0.4-4,0.7-8,1-11.9
			C7,105.9,7.5,97.7,8,89.6c0.9-16.3,1.4-32.6,1.4-49c0-4.5,0-9,0-13.6c0-2.3,0-4.5-0.1-6.8c0-1.2,0-2.4-0.1-3.6
			c0-0.8-0.1-1.7,0.2-2.5c-0.2,0.2-0.5,0.4-0.7,0.6C30,12,51.5,9.9,73,8.4c21.5-1.5,43-2.4,64.6-2.6c21.5-0.2,43.1,0.1,64.6,1.1
			c10.4,0.5,20.7,0.9,31,2.1c9.9,1.1,19.8,3,29.1,6.7c0.9,0.3,1.9,0.6,2.6,1.2c0.3,0.3,1,0.8,1.2,1.2c0.1,0.2,0.1,0.9,0.1,1.2
			c0.1,0.8,0.2,1.5,0.3,2.3c0.1,1.3,0.2,2.7,0.3,4c0.2,5.3-0.5,10.6-1.2,15.9c-1.5,10.5-3.1,20.9-3.8,31.4
			c-1.5,21.1-0.8,42.4,2.2,63.4c0.1,0.7,0.4,1.8,0.3,2.2c-0.1,0.3-0.5,1.4-0.8,1.6c0.1-0.1-0.8,0-1.1,0.1c-0.7,0.2-1.3,0.3-2,0.5
			c-1.3,0.3-2.6,0.6-3.9,0.8c-5.2,1-10.5,1.7-15.7,2.3c-10.4,1.1-20.8,1.6-31.2,2.2c-21.2,1.3-42.3,2.4-63.5,3
			c-21,0.6-41.9,0.6-62.9-0.5c-21-1.1-42-3.3-62.8-7.1c-5.1-0.9-10.1-2-15.1-3.1C4.4,138,4,139.4,5,139.7
			c20.7,4.6,41.8,7.6,62.9,9.3c21.3,1.7,42.7,2.1,64,1.8c21.4-0.3,42.9-1.3,64.3-2.5c10.7-0.6,21.4-1.2,32.1-1.9
			c10.4-0.7,20.9-1.7,31.1-3.8c1.3-0.3,2.6-0.6,3.9-0.9c0.7-0.2,1.2-0.2,1.6-0.9c0.3-0.5,0.5-1,0.7-1.5c0.3-0.8,0.1-1.5-0.1-2.3
			c-0.8-5.4-1.4-10.9-1.9-16.4c-1-10.7-1.3-21.5-1.1-32.3c0.2-10.9,1-21.7,2.4-32.5c1.4-10.5,3.9-21.1,3.3-31.7
			c-0.1-1.2-0.2-2.5-0.4-3.7c-0.1-1-0.1-2.5-0.7-3.3c-0.6-0.9-1.6-1.6-2.6-2c-4.5-1.9-9.2-3.4-14-4.6c-9.7-2.4-19.7-3.3-29.7-4
			c-21.7-1.4-43.5-2.1-65.3-2.2c-21.9-0.1-43.8,0.4-65.6,1.6c-21.9,1.2-43.7,3-65.4,5.5c-5.3,0.6-10.7,1.2-16,1.9
			c-0.4,0-0.6,0.2-0.7,0.6c-0.5,1.4-0.2,3-0.2,4.4c0,2.3,0.1,4.5,0.1,6.8c0,4.2,0.1,8.3,0.1,12.5c0,8.3-0.1,16.7-0.4,25
			C7.1,79.3,6.2,96.2,4.9,113c-0.4,4.7-0.8,9.4-1.2,14c-0.2,2.4-0.4,4.8-0.7,7.3c-0.2,1.8-0.7,3.4,0.6,4.9
			C4.2,139.9,5.3,138.8,4.7,138.1L4.7,138.1z"/>
	</g>
</g>
</svg>
