<?xml version="1.0" encoding="utf-8"?>
<!-- Generator: Adobe Illustrator 24.0.1, SVG Export Plug-In . SVG Version: 6.00 Build 0)  -->
<svg version="1.1" id="Layer_1" xmlns="http://www.w3.org/2000/svg" xmlns:xlink="http://www.w3.org/1999/xlink" x="0px" y="0px"
	 viewBox="0 0 343.3 507.7" style="enable-background:new 0 0 323.3 507.7;" xml:space="preserve">
<style type="text/css">
	.st0{display:none;}
	.st1{display:inline;}
	.st2{fill:#FFFFFF;}
	.st3{fill:#048181;}
	.st4{fill:#E67500;}
	.st5{fill:#28A0A0;}
	.st6{fill:#FFC422;}
	.st7{fill:#CE9F29;}
	.st8{fill:#D8AA2A;}
	.st9{fill:#FFFFFF;stroke:#000000;stroke-width:2;stroke-miterlimit:10;}
	.st10{fill:#303030;stroke:#000000;stroke-width:0.75;stroke-miterlimit:10;}
	.st11{fill:#E99A48;}
	.st12{fill:#B15D06;}
</style>
<image style="display:none;overflow:visible;" width="600" height="620" xlink:href="E13F0838.jpg"  transform="matrix(0.9999 0 0 0.9999 -147.9319 -96.9341)">
</image>
<image style="display:none;overflow:visible;" width="548" height="620" xlink:href="E13F0839.jpg"  transform="matrix(1 0 0 1 -151.5263 -93.9566)">
</image>
<image style="display:none;overflow:visible;" width="1023" height="972" xlink:href="E13F083A.jpg"  transform="matrix(0.4488 0 0 0.4488 -120.274 -2.3296)">
</image>
<g class="st0">
	<g class="st1">
		<path class="st2" d="M-167.2,478.2c1.9,0,1.9-3,0-3C-169.1,475.2-169.1,478.2-167.2,478.2L-167.2,478.2z"/>
	</g>
</g>
<path class="st3" d="M183.1,447.4c-0.3-0.7-0.7-1.5-1-2.2c0.1-0.4,0.1-0.8,0-1.2c-2.2-10.8-3.8-21.6-4.8-32.5
	c-0.1-3.7-0.4-7.3-0.8-10.9c0.8-0.5,1.4-1.4,1.4-2.5c-0.3-9.5-0.7-19-2.7-28.3c-0.1-0.5-0.3-0.8-0.5-1.1c0.1-1.1,0.2-2.2,0.3-3.3
	c0.2-1.2,0-2.4-1.1-3.2c-0.9-0.7-2.3-0.9-3.3-0.2c-3.3,2.2-7.3,3.2-11.2,2.5c-0.9-0.2-2,0-2.8,0.6c-0.5-0.3-1.1-0.5-1.6-0.4
	c-7.1,0.8-14.2,1.4-21.3,1.8c-0.4-0.2-0.7-0.2-1.1-0.3c-4.5-0.3-9.1-0.1-13.5,0.7c-7.2,0.1-14.4-0.1-21.6-0.5
	c-2.2-0.1-3.2,2-2.9,3.8c0.2,1.4,0.4,2.7,0.6,4.1c-0.2,0.4-0.4,0.9-0.4,1.4c-0.5,5.7-0.9,11.5-1.3,17.3c-0.6,3.3-0.8,6.6-0.6,9.9
	c0,0.4,0.1,0.7,0.2,1c-1.1,6.4-1.5,12.9-1.1,19.4c-0.1,1.2-0.1,2.5-0.2,3.7c0,0.7,0.2,1.3,0.7,1.9c0.1,0.5,0.1,1.1,0.2,1.6
	c-0.3,0.4-0.5,1-0.4,1.6c0.1,5.8,0.3,11.5,0.4,17.3c0,0.5,0.1,0.9,0.3,1.2c0,0.8-0.1,1.6-0.1,2.5c0,0.2,0,0.4,0,0.5l-0.6,3.6
	c-0.2,0.9,0.8,1.8,1.7,1.3c1-0.6,1.6-1.5,2.1-2.5c0.8,0,1.6-0.3,2.2-1c0.2,0,0.3-0.1,0.5-0.2c0,0,0,0,0,0c0.3,0.1,0.6,0.1,0.9,0.1
	c0,0,0,0,0,0c0,0,0,0,0,0c0.1,0,0.7-0.1,0.8-0.1c0,0,0,0,0,0c0,0,0,0,0,0c0.3-0.1,0.5-0.2,0.7-0.3c0,0,0,0,0,0c0,0,0,0,0,0
	c0,0,0.2-0.2,0.4-0.3c0.1,0,0.1,0,0.2,0c1,0,2.1-0.1,3.1-0.5c0.3,0,0.7,0.1,1,0.2c1.4,0.3,2.7,0.8,4,1.2c1.1,0.3,2.2,0.4,3.3,0.4
	c0.7,1.4,2,2.5,3.7,2.3c0.3,0,0.5-0.1,0.8-0.2c0.2,0.1,0.4,0.2,0.7,0.3c0.4,0.4,0.9,0.8,1.3,1.3c0.3,0.3,0.6,0.5,1,0.7
	c1,1.2,2.1,2.4,3.1,3.6c0.3,0.7,0.8,1.3,1.4,1.7c0.1,0.1,0.2,0.2,0.3,0.3c0.7,0.8,1.6,1,2.5,0.9c0,0.2,0,0.4,0,0.6
	c0,0.4,0,0.8,0,1.2c-0.1,1.5,2.1,1.4,2.3,0c0-0.5,0-1,0-1.5c0-0.6,0-1.2-0.1-1.8c0.3-0.4,0.4-0.9,0.5-1.4c0-0.5,0-1,0.1-1.5
	c0,0,0,0,0,0c0-0.5-0.1-1-0.4-1.5c0,0,0-0.1-0.1-0.1c0.2-1,0.2-2.1,0-3.2c-0.1-0.6-0.5-1.1-0.9-1.4c0.4-8.5-0.1-16.9-1.3-25.3
	c0.3-5.1,0.2-10.2-0.4-15.3c-0.1-0.6-0.3-1.2-0.6-1.7c0.1-0.2,0.2-0.5,0.3-0.7c1.5-4.3,2.6-8.8,2.2-13.4c0-0.2,0-0.4-0.1-0.5
	c0.3-1.1,0.7-2.2,1.1-3.3c0.8-2.3,1.3-4.6,1.2-7c0.4-0.9,0.5-2,0.1-2.8c0.3,0,0.5-0.1,0.8-0.1c2.7-0.1,5.5-0.2,8.2-0.2
	c-0.1,0.2-0.1,0.5,0,0.8c0.3,3.2,0.8,6.3,1.3,9.5c0,0.2,0,0.4,0,0.6c1,8.1,2.1,16.2,3.1,24.4c-0.3,0.5-0.5,1-0.4,1.5
	c0.1,11,1.3,22,3.6,32.8c0.1,0.6,0.4,1,0.9,1.4c-0.3,1.6-0.6,3.1-1,4.7c-0.8,3.4,3.6,5.1,5.5,2.3c4.2-6.2,11.6-9.6,18.9-9.3
	c0.8,0,1.5-0.3,2-0.7c1.3,0.2,2.5,0.4,3.8,0.6c0.3,0.1,0.6,0.1,0.9,0.1c0.3,0.4,0.7,0.7,1.2,0.8c2.1,0.8,4.4-0.7,4.5-3
	C184.6,450,183.8,448.7,183.1,447.4z M108.3,373.5c0.6,0,1.1,0,1.7,0.1c-0.1,0.5-0.2,1-0.3,1.5c-0.4-0.2-0.9-0.3-1.4-0.4
	C108.3,374.3,108.3,373.9,108.3,373.5z"/>
<path class="st4" d="M201.2,162.8C201.2,162.8,201.2,162.9,201.2,162.8c-0.2,0.2-0.4,0.3-0.5,0.5c-0.8,1.5-1.2,3.1-1.1,4.8
	c0,0.1,0,0.1-0.1,0.2c-1.8,2.2-3.3,4.5-4.5,7c-0.3,0.7-0.1,1.4,0.3,1.8c-1.2,1.6-2.3,3.3-3.3,5c-0.5,0.5-0.9,1.2-1,1.9
	c0,0.2,0,0.4,0,0.6c0,0,0,0.1-0.1,0.1c-0.9-0.3-2,0.1-2.2,1.1c-0.2,0.6,0.1,1.4,0.2,2l0.4,2.1c0.3,1.6,0.6,3.2,0.9,4.7
	c0.3,1.9,3.2,1.1,2.9-0.8c0-0.3-0.1-0.5-0.1-0.8c0.5-0.1,1-0.4,1.2-1c0.8-2.6,1.5-5.2,2.2-7.8c1.5-2.2,3-4.5,4.3-6.9
	c1.7-3,3.8-6.3,2.7-9.8c0-0.1-0.1-0.1-0.1-0.2c0.2-0.7,0.5-1.3,0.6-2c0.2-0.2,0.3-0.5,0.3-0.9c0-0.4,0-0.7,0.1-1.1
	C204.2,161.5,201.5,161.1,201.2,162.8z"/>
<g>
	<g>
		<path class="st5" d="M94.3,408.6c-0.8,8.1-1.4,16.3-1.6,24.5c-0.1,4.1-0.2,8.2-0.2,12.3c0,4.4-0.5,9.7,1.8,13.7
			c2,3.4,6.9,4.9,10.3,2.7c3.4-2.2,4.8-6.6,2.7-10.3c-0.1-0.2-0.2-0.4-0.3-0.6c0.3,0.6,0.5,1.2,0.8,1.8c-0.1-0.3-0.2-0.7-0.2-1
			c0.1,0.7,0.2,1.3,0.3,2c-0.4-3.5-0.2-7.2-0.2-10.8c0-3.9,0.1-7.7,0.2-11.6c0.3-7.6,0.8-15.2,1.6-22.7c0.2-1.8-1-4.1-2.2-5.3
			c-1.3-1.3-3.4-2.3-5.3-2.2c-1.9,0.1-4,0.7-5.3,2.2C95,404.9,94.5,406.5,94.3,408.6L94.3,408.6z"/>
	</g>
</g>
<g>
	<g>
		<path class="st4" d="M176.1,463.6c1.6,2.3,3.2,4.6,4.8,6.9c1.1,1.6,3.6,0.2,2.6-1.5c-1.3-2.2-2.6-4.3-3.9-6.5
			c-0.8,0.6-1.6,1.2-2.4,1.8c1.9,1.8,3.7,3.7,5.2,5.9c1.1,1.6,3.6,0.2,2.6-1.5c-1.3-2.2-2.6-4.5-3.8-6.7c-0.8,0.6-1.6,1.2-2.4,1.8
			c1.8,2.1,3.7,4.1,5.5,6.2c1.2,1.3,3.1-0.4,2.4-1.8c-1.2-2.2-2.4-4.4-3.6-6.6c-0.8,0.6-1.6,1.2-2.4,1.8c1.4,1.2,2.6,2.5,3.7,3.9
			c1.1,1.5,3.6,0.2,2.6-1.5c-1.2-2-2.3-4.1-3.2-6.2c-0.8,0.5-1.7,1-2.5,1.5c1.9,2,3.6,4.3,5,6.7c1,1.7,3.3,0.2,2.6-1.5
			c-0.8-1.9-1.7-3.9-2.5-5.8c-0.9,0.5-1.7,1-2.6,1.5c1.1,1.8,2.3,3.6,3.4,5.4c1,1.6,3.5,0.2,2.6-1.5c-0.7-1.3-1.3-2.7-1.7-4.1
			c-0.9,0.4-1.8,0.8-2.7,1.2c0.8,1,1.5,2.1,2.3,3.1c1.2,1.5,3.4,0.3,2.6-1.5c-0.5-1.2-1.1-2.5-1.6-3.7c-0.8,0.6-1.6,1.2-2.4,1.8
			c1,1.1,1.9,2.2,2.9,3.4c1.1,1.3,3.2-0.4,2.4-1.8c-0.6-1-1.2-2.1-1.7-3.1c-0.8,0.6-1.6,1.2-2.4,1.8c0.9,0.7,1.4,1.5,1.7,2.6
			c0.9-0.4,1.8-0.8,2.7-1.2c-1.2-2.6-3.2-4.7-5.7-6.1c-1-0.5-2.7,0.4-2.2,1.7c1.1,2.8,2.3,5.5,3.4,8.3c0.9-0.4,1.8-0.8,2.7-1.2
			c-0.5-1.1-0.8-2.3-0.9-3.6c-0.9,0.3-1.9,0.5-2.8,0.8c0.9,1.5,1.8,3,2.7,4.4c0.9,1.5,3,0.5,2.7-1.2c-0.2-0.9-0.3-1.9-0.5-2.8
			c-0.9,0.4-1.8,0.8-2.7,1.2c0.7,1,1.4,2.1,2,3.1c0.9,1.4,3.3,0.5,2.7-1.2c-0.2-0.7-0.3-1.3-0.2-2c-1,0.1-2,0.3-2.9,0.4
			c0.4,1.3,0.5,2.6,0.3,3.9c0.9-0.3,1.9-0.5,2.8-0.8c-0.5-0.6-0.9-1.3-1.4-1.9c-0.8-1.1-2.9-0.9-2.8,0.8c0.1,2.1-0.2,4.1-0.9,6.1
			c0.9-0.1,1.8-0.2,2.7-0.4c-1.4-2.4-2.3-4.9-2.8-7.6c-0.3-1.6-3.1-1.3-2.9,0.4c0.1,1.4,0,2.8-0.6,4.1c0.9,0,1.7,0,2.6,0
			c-0.8-1.6-1.4-3.4-1.6-5.2c-0.9,0.4-1.8,0.8-2.7,1.2c0.8,1.6,1.1,3.3,0.9,5.1c0.9-0.3,1.9-0.5,2.8-0.8c-1-1.9-2-3.9-3-5.8
			c-0.7-1.4-2.7-0.6-2.8,0.8c-0.1,1.6-0.2,3.2-0.3,4.8c0.9-0.3,1.9-0.5,2.8-0.8c-1.6-2.2-3-4.6-4.1-7.1c-0.7-1.6-3.1-0.4-2.7,1.2
			c0.6,2.3,1.1,4.7,1.7,7c0.9-0.4,1.8-0.8,2.7-1.2c-2.2-3-4.2-6.1-5.9-9.4c-0.8-1.5-3.2-0.5-2.7,1.2c0.7,2.5,1.4,5,2,7.5
			c0.9-0.4,1.8-0.8,2.7-1.2c-0.9-1.5-1.7-3.1-2.6-4.6c-0.8-1.5-3.2-0.5-2.7,1.2c0.6,2,0.9,4,0.9,6c0.9-0.3,1.9-0.5,2.8-0.8
			c-1.6-2.5-3-5.2-4.1-8c-0.7-1.8-3.3-1.1-2.9,0.8c0.5,2.4,1.1,4.7,1.6,7.1c1-0.3,1.9-0.5,2.9-0.8c-0.8-2.1-1.8-4.1-3.1-6
			c-0.8-1.1-3-0.9-2.8,0.8c0.2,2,0.4,4,0.6,6.1c0.9-0.3,1.9-0.5,2.8-0.8c-0.9-1.9-1.8-3.7-2.7-5.6c-0.7-1.4-2.8-0.7-2.8,0.8
			c0,1.9,0,3.8,0,5.7c0.9-0.3,1.9-0.5,2.8-0.8c-0.8-1.2-1.3-2.3-1.5-3.7c-0.4-1.7-2.9-1.3-2.9,0.4c0,1.6,0,3.2-0.1,4.7
			c1-0.1,2-0.3,2.9-0.4c-0.7-1.7-1.3-3.4-2-5.1c-0.6-1.5-3-1.4-2.9,0.4c0,1.8,0.1,3.6,0.1,5.3c1,0,2,0,3,0c-0.2-2-0.8-3.8-1.7-5.6
			c-0.6-1.1-2.5-0.9-2.7,0.4c-0.5,2.2-0.9,4.4-1.4,6.7c1,0,1.9,0,2.9,0c-0.3-1.7-0.7-3.3-1-5c-0.3-1.7-2.9-1.3-2.9,0.4
			c0,1.6,0,3.1-0.1,4.7c1-0.1,2-0.3,2.9-0.4c-0.3-1.5-0.6-3-0.9-4.4c-0.3-1.6-3.1-1.3-2.9,0.4c0.1,1.3-0.1,2.5-0.7,3.7
			c0.9,0.1,1.8,0.2,2.7,0.4c-0.6-1.5-0.9-2.9-1.1-4.5c-0.2-1.9-3.2-1.9-3,0c0.2,2,0.1,4-0.3,6c0.9-0.1,1.8-0.2,2.7-0.4
			c-0.6-1.4-1.1-3-1.3-4.5c-0.2-1.9-3.1-2-3,0c0.1,1.6,0.1,3.2,0.2,4.8c0.9-0.3,1.9-0.5,2.8-0.8c-0.4-0.9-0.7-1.8-0.9-2.7
			c-0.2-1.9-3.1-2-3,0c0.1,1.3,0,2.6-0.3,3.9c1,0,1.9,0,2.9,0c-0.7-2-1.1-4-1-6.1c0-2-2.9-1.9-3,0c-0.1,1-0.1,2-0.2,3
			c-0.1,1.7,2.6,2,2.9,0.4c0.4-1.9,1.6-3.4,3.3-4.3c-0.5-0.9-1-1.7-1.5-2.6c-1.1,0.6-2.2,1.2-3.3,1.8c0.6,0.8,1.2,1.6,1.8,2.4
			c1.4-1.5,2.9-2.9,4.5-4.1c-0.7-0.7-1.4-1.4-2.1-2.1c-1.5,1.3-3,2.5-4.4,3.8c-1.3,1.1,0.4,3.4,1.8,2.4c3.1-2.2,6-4.8,8.6-7.6
			c-0.8-0.5-1.7-1-2.5-1.5c-0.7,1.9-2.2,3.4-4,4.2c0.5,0.9,1,1.7,1.5,2.6c2.6-1.7,5.2-3.5,7.7-5.2c1.3-0.9,0.5-3.3-1.2-2.7
			c-3.1,1-5.9,2.6-8.4,4.8c0.7,0.7,1.4,1.4,2.1,2.1c1.6-1.6,3.2-3.1,5.1-4.4c-0.6-0.8-1.2-1.6-1.8-2.4c-1.2,1-2.5,1.8-3.9,2.4
			c-1.5,0.7-0.5,3.3,1.2,2.7c3.2-1,6.4-2.1,9.6-3.1c-0.4-0.9-0.8-1.8-1.2-2.7c-1.5,1.1-3.1,1.9-4.9,2.4c0.4,0.9,0.8,1.8,1.2,2.7
			c2-1.1,4-2.1,6.1-2.9c1.5-0.6,1.4-2.9-0.4-2.9c-2.4,0-4.6,0.5-6.8,1.5c0.6,0.8,1.2,1.6,1.8,2.4c0.9-1.1,2.1-1.7,3.6-1.6
			c-0.3-0.9-0.5-1.9-0.8-2.8c-1,0.6-2,1-3.2,1.1c0,1,0,2,0,3c2.4-0.2,4.8-0.4,7.1-0.6c-0.1-1-0.3-2-0.4-2.9
			c-1.2,0.5-2.4,0.6-3.7,0.4c0.3,0.9,0.5,1.9,0.8,2.8c1.8-1.2,3.7-1.9,5.9-2c-0.4-0.8-0.9-1.5-1.3-2.3c-0.7,0.9-1.7,1.3-2.8,1.2
			c0.3,0.9,0.5,1.9,0.8,2.8c1.3-0.5,2.6-0.7,3.9-0.7c1.7,0.1,2-2.5,0.4-2.9c-1.7-0.4-3.3-0.6-5-0.5c-1.9,0.1-1.9,3.1,0,3
			c2.7-0.1,5.4,0.1,8,0.5c0.1-1,0.3-2,0.4-2.9c-1,0-1.9,0.1-2.9,0.1c0.1,1,0.3,2,0.4,2.9c1.4-0.4,2.6-0.3,3.9,0.2
			c0.1-1,0.3-2,0.4-2.9c-2.1,0-4.2-0.2-6.3-0.6c-0.1,1-0.3,2-0.4,2.9c1.1-0.1,2.3-0.3,3.4-0.4c1.5-0.2,2.2-2.6,0.4-2.9
			c-1.3-0.3-2.6-0.4-3.9-0.2c0,1,0,2,0,3c3.9-0.5,7.7,0.5,10.8,2.9c0.4-0.9,0.8-1.8,1.2-2.7c-1.9-0.6-3.7-1.4-5.5-2.3
			c-0.3,0.9-0.5,1.9-0.8,2.8c2.3,0,4.4,0.6,6.3,1.9c1.6,1.1,3.1-1.5,1.5-2.6c-2-1.4-4.1-2.5-6.3-3.3c-0.3,1-0.5,1.9-0.8,2.9
			c2.4,0.7,4.6,1.8,6.6,3.2c1.2,0.9,2.9-0.9,2.1-2.1c-1.6-2.2-3.8-3.5-6.5-3.8c0.3,0.9,0.5,1.9,0.8,2.8c0.6-0.3,1.1,0.2,1.4,0.7
			c0.6-0.7,1.1-1.5,1.7-2.2c-4.3-0.6-8.5-0.5-12.7,0.2c-1.4,0.2-1.3,2.1-0.4,2.7c2.7,1.8,5.9,2.7,9.1,2.6c1.9,0,1.9-3,0-3
			c-3.6-0.1-7.3-0.4-10.9-0.8c0,1,0,2,0,3c3.2,0.3,6.4,0.9,9.5,1.8c0-1,0-1.9,0-2.9c-3.7,1.1-7.6,1.2-11.3,0.1c-0.1,1-0.3,2-0.4,2.9
			c2.4,0.1,4.7,0.2,7.1,0.2c-0.1-1-0.3-2-0.4-2.9c-3.4,0.6-6.7,1.8-9.8,3.5c-1.3,0.7-0.7,2.8,0.8,2.8c3.1,0,6.2-0.7,8.9-2.2
			c1.5-0.8,0.5-3.4-1.2-2.7c-2.9,1.1-5.9,2.2-8.8,3.4c0.6,0.7,1.1,1.5,1.7,2.2c0.8-1.2,1.6-2.5,2.4-3.7c0.6-0.9-0.2-2.3-1.3-2.3
			c-2.8,0.2-5.4,1-7.7,2.6c-1.3,0.9-0.5,3.3,1.2,2.7c2.3-0.8,4.4-2,6.2-3.8c1.3-1.3-0.3-3-1.8-2.4c-3,1.3-5.4,3.4-7.4,6
			c-1,1.3,1.3,3.1,2.4,1.8c1-1.3,2.1-2.6,3.1-3.9c1.2-1.5-0.7-3.5-2.1-2.1c-1.9,1.7-3.7,3.5-5.6,5.2c0.9,0.4,1.7,0.7,2.6,1.1
			c0.1-1,0.4-1.9,0.9-2.7c1-1.7-1.5-3.1-2.6-1.5c-0.7,1-1.3,2-2,2.9c-0.6,0.8,0,1.9,0.9,2.2c2.9,0.9,6.1,0.9,9.1,1.1
			c3.3,0.2,6.6,0.4,9.9,0.6c3.2,0.2,6.4,0.4,9.5,0.9c1.6,0.2,3.2,0.5,4.7,0.8c1.1,0.3,2.3,0.6,2.8,1.7c0.7,1.3,2.8,0.7,2.8-0.8
			c0-0.6,0-1.2,0-1.8c-1,0-2,0-3,0c0.1,1,0.2,1.9,0.2,2.9c1-0.1,2-0.3,2.9-0.4c-0.2-1.1-0.5-2.1-0.7-3.2c-1,0.3-1.9,0.5-2.9,0.8
			c0.4,1.3,0.5,2.5,0.3,3.8c1,0,2,0,3,0c0.1-1.2,0.4-2.3,0.9-3.5c-1-0.1-2-0.3-2.9-0.4c-0.1,2.3-0.2,4.5-0.3,6.8
			c0.6-0.5,1.3-1,1.9-1.4c-13.8-3.8-28.3-4.3-42.3-1.4c0.6,0.5,1.3,1,1.9,1.4c0.1-1.6,0.4-3,1-4.5c-1,0-1.9,0-2.9,0
			c0.5,1.3,1,2.5,1.6,3.8c0.4,0.9,1.3,1.4,2.2,0.9c1.2-0.6,2.1-1.7,2.4-3c-0.8,0.2-1.7,0.4-2.5,0.7c2.4,2.4,6.1,2.4,8.7,0.3
			c1.2-0.9-0.1-2.9-1.5-2.5c-0.1,0-2,0.4-1.1,0.9c-0.1-0.8-0.2-1.6-0.3-2.4c-0.8,0.9-1.9,1.5-3.1,1.3c0.2,0.8,0.4,1.7,0.7,2.5
			c0.4-0.4,0.8-0.6,1.3-0.5c-0.3-0.6-0.7-1.2-1-1.8c-0.2,0.8,3.8,0.9,4.3,1c1.1,0.1,2.3,0.2,3.4,0.3c-0.4-0.8-0.9-1.5-1.3-2.3
			c-0.2,0.2-0.9,0.3-1.1,0c-0.5,0.6-1,1.3-1.4,1.9c2.1-0.2,4.1-0.1,6.2,0.4c-0.1-0.9-0.2-1.8-0.4-2.7c-1.2,0.6-2.5,0.7-3.7,0.1
			c0,0.9,0,1.7,0,2.6c1.8-1.2,3.8-1.4,5.8-0.6c-0.1-0.9-0.2-1.8-0.4-2.7c-1.2,0.8-2.5,1.3-3.9,1.5c0.3,0.9,0.5,1.9,0.8,2.8
			c2.2-1.1,4.7-1.3,7-0.6c-0.1-0.9-0.2-1.8-0.4-2.7c-0.9,0.6-1.9,1-2.9,1.2c0.6,0.7,1.1,1.5,1.7,2.2c2.4-3.9,4.9-7.9,7.3-11.8
			c1-1.6-1.6-3.2-2.6-1.5c-2.4,3.9-4.9,7.9-7.3,11.8c-0.7,1.2,0.5,2.5,1.7,2.2c1.3-0.3,2.5-0.8,3.7-1.5c1.1-0.7,0.9-2.4-0.4-2.7
			c-3.2-0.9-6.4-0.6-9.3,0.9c-1.3,0.6-0.7,3,0.8,2.8c2-0.3,3.8-0.8,5.5-1.9c1.2-0.7,0.8-2.3-0.4-2.7c-2.7-1.1-5.8-0.7-8.1,0.9
			c-0.8,0.6-1.1,2.1,0,2.6c2.2,1,4.5,1,6.8-0.1c1.1-0.6,0.9-2.5-0.4-2.7c-2.3-0.5-4.6-0.7-7-0.5c-0.9,0.1-1.8,0.9-1.4,1.9
			c1.1,2.8,4.9,3.3,6.6,0.8c0.7-1-0.2-2.2-1.3-2.3c-1.7-0.1-3.4-0.3-5.1-0.4c-1.3-0.1-2.7,0-3.5,1.2c-1.6,2.5,3,4.6,3.6,1.8
			c0.2-0.7-0.2-1.7-1-1.8c-1.6-0.3-3.1,0.1-4.3,1.3c-0.7,0.7-0.5,2.3,0.7,2.5c2.3,0.4,4.5-0.3,6-2c0.6-0.7,0.6-1.8-0.3-2.4
			c-1.6-1-3.7,0.3-3.7,2.2c0,2.1,2.4,2.9,4.1,2.4c-0.5-0.8-1-1.7-1.5-2.5c-1.3,1-3.3,0.8-4.4-0.3c-0.8-0.8-2.2-0.4-2.5,0.7
			c-0.2,0.6-0.5,1-1.1,1.3c0.7,0.3,1.5,0.6,2.2,0.9c-0.5-1.3-1-2.5-1.6-3.8c-0.6-1.4-2.3-1.4-2.9,0c-0.7,1.7-1,3.5-1.1,5.3
			c0,1,1,1.6,1.9,1.4c13.5-2.8,27.5-2.3,40.7,1.4c1,0.3,1.9-0.5,1.9-1.4c0.1-2.3,0.2-4.5,0.3-6.8c0.1-1.8-2.4-1.9-2.9-0.4
			c-0.5,1.4-0.8,2.8-1,4.3c-0.2,1.9,2.8,1.9,3,0c0.2-1.5,0-3.1-0.4-4.6c-0.6-1.9-3.3-1.1-2.9,0.8c0.2,1.1,0.5,2.1,0.7,3.2
			c0.3,1.6,3.1,1.3,2.9-0.4c-0.1-1-0.2-1.9-0.2-2.9c-0.2-1.9-3-2-3,0c0,0.6,0,1.2,0,1.8c0.9-0.3,1.9-0.5,2.8-0.8
			c-1.3-2.6-4.4-3.1-7-3.5c-3.4-0.6-6.8-0.9-10.3-1.2c-3.5-0.3-7.1-0.4-10.6-0.7c-3.3-0.2-6.8-0.1-10-1.1c0.3,0.7,0.6,1.5,0.9,2.2
			c0.7-1,1.3-2,2-2.9c-0.9-0.5-1.7-1-2.6-1.5c-0.7,1.3-1.1,2.7-1.3,4.2c-0.1,1.4,1.7,1.9,2.6,1.1c1.9-1.7,3.7-3.5,5.6-5.2
			c-0.7-0.7-1.4-1.4-2.1-2.1c-1,1.3-2.1,2.6-3.1,3.9c0.8,0.6,1.6,1.2,2.4,1.8c1.6-2.2,3.8-3.8,6.3-4.9c-0.6-0.8-1.2-1.6-1.8-2.4
			c-1.4,1.4-3,2.4-4.8,3c0.4,0.9,0.8,1.8,1.2,2.7c1.9-1.3,4-2,6.2-2.2c-0.4-0.8-0.9-1.5-1.3-2.3c-0.8,1.2-1.6,2.5-2.4,3.7
			c-0.7,1,0.5,2.7,1.7,2.2c2.9-1.1,5.9-2.2,8.8-3.4c-0.4-0.9-0.8-1.8-1.2-2.7c-2.3,1.2-4.8,1.8-7.4,1.8c0.3,0.9,0.5,1.9,0.8,2.8
			c2.8-1.6,5.9-2.6,9.1-3.2c1.7-0.3,1.2-2.9-0.4-2.9c-2.4-0.1-4.7-0.2-7.1-0.2c-1.7-0.1-2,2.5-0.4,2.9c4.2,1.3,8.7,1.2,12.9-0.1
			c1.4-0.4,1.4-2.5,0-2.9c-3.3-1-6.8-1.7-10.3-2c-2-0.2-1.9,2.8,0,3c3.6,0.5,7.2,0.7,10.9,0.8c0-1,0-2,0-3c-2.7,0.1-5.3-0.7-7.6-2.2
			c-0.1,0.9-0.2,1.8-0.4,2.7c3.7-0.7,7.4-0.8,11.1-0.2c1.3,0.2,2.3-0.9,1.7-2.2c-1-2.1-3.5-2.7-5.5-1.8c-1.5,0.7-0.5,2.6,0.8,2.8
			c1.6,0.2,3,1.1,3.9,2.3c0.7-0.7,1.4-1.4,2.1-2.1c-2.2-1.6-4.7-2.8-7.3-3.5c-1.9-0.6-2.6,2.2-0.8,2.9c2,0.7,3.9,1.7,5.6,3
			c0.5-0.9,1-1.7,1.5-2.6c-2.3-1.6-5.1-2.4-7.9-2.3c-1.4,0-2.1,2.1-0.8,2.8c2,1.1,4.1,1.9,6.2,2.6c1.7,0.6,2.4-1.8,1.2-2.7
			c-3.5-2.6-8-3.8-12.3-3.3c-1.9,0.2-1.9,3.2,0,3c1.1-0.1,2.1-0.1,3.1,0.1c0.1-1,0.3-2,0.4-2.9c-1.1,0.1-2.3,0.3-3.4,0.4
			c-1.5,0.2-2.2,2.5-0.4,2.9c2.3,0.5,4.7,0.8,7.1,0.8c1.8,0,2-2.4,0.4-2.9c-1.8-0.7-3.7-0.7-5.5-0.2c-1.6,0.4-1.3,3,0.4,2.9
			c1,0,1.9-0.1,2.9-0.1c1.6-0.1,2.1-2.7,0.4-2.9c-2.9-0.5-5.9-0.7-8.8-0.6c0,1,0,2,0,3c1.4-0.1,2.8,0,4.2,0.4c0.1-1,0.3-2,0.4-2.9
			c-1.9-0.1-3.7,0.3-5.5,1.1c-1.5,0.6-0.6,2.7,0.8,2.8c2.2,0.1,4.1-0.9,5.4-2.7c0.7-0.9-0.2-2.3-1.3-2.3c-2.7,0.1-5.2,0.9-7.4,2.4
			c-1.3,0.9-0.7,2.6,0.8,2.8c1.5,0.2,3.1,0,4.5-0.6c1.5-0.6,1.4-3.1-0.4-2.9c-2.4,0.2-4.8,0.4-7.1,0.6c-1.9,0.1-1.9,3.1,0,3
			c1.7-0.1,3.3-0.5,4.7-1.5c1.2-0.8,0.8-2.7-0.8-2.8c-2.2-0.1-4.3,0.8-5.7,2.5c-1.1,1.3,0.3,3,1.8,2.4c1.7-0.7,3.5-1.1,5.3-1
			c-0.1-1-0.3-2-0.4-2.9c-2.4,0.9-4.6,2-6.9,3.2c-1.5,0.8-0.5,3.2,1.2,2.7c2-0.6,3.9-1.4,5.6-2.7c1.3-0.9,0.6-3.3-1.2-2.7
			c-3.2,1-6.4,2.1-9.6,3.1c0.4,0.9,0.8,1.8,1.2,2.7c1.6-0.8,3.1-1.7,4.5-2.9c1.3-1.1-0.4-3.4-1.8-2.4c-2,1.5-3.9,3.1-5.7,4.9
			c-1.4,1.4,0.7,3.4,2.1,2.1c2.1-1.8,4.5-3.1,7-4c-0.4-0.9-0.8-1.8-1.2-2.7c-2.6,1.7-5.2,3.5-7.7,5.2c-1.6,1.1-0.2,3.4,1.5,2.6
			c2.6-1.2,4.4-3.4,5.4-6c0.5-1.4-1.5-2.5-2.5-1.5c-2.4,2.7-5.1,5.1-8,7.2c0.6,0.8,1.2,1.6,1.8,2.4c1.5-1.3,3-2.5,4.4-3.8
			c1.5-1.3-0.6-3.3-2.1-2.1c-1.6,1.3-3.1,2.6-4.5,4.1c-1.2,1.2,0.3,3.2,1.8,2.4c1.1-0.6,2.2-1.2,3.3-1.8c1.7-0.9,0.2-3.5-1.5-2.6
			c-2.4,1.2-4.1,3.4-4.7,6c1,0.1,2,0.3,2.9,0.4c0.1-1,0.1-2,0.2-3c-1,0-2,0-3,0c0,2.4,0.3,4.7,1.1,6.9c0.5,1.3,2.6,1.6,2.9,0
			c0.3-1.6,0.5-3.1,0.4-4.7c-1,0-2,0-3,0c0.2,1.5,0.6,2.9,1.3,4.2c0.7,1.3,2.9,0.7,2.8-0.8c-0.1-1.6-0.1-3.2-0.2-4.8c-1,0-2,0-3,0
			c0.3,2.1,0.8,4.1,1.7,6c0.5,1.2,2.5,0.9,2.7-0.4c0.4-2.3,0.6-4.5,0.4-6.8c-1,0-2,0-3,0c0.2,1.8,0.5,3.6,1.2,5.3
			c0.4,1.2,2.1,1.6,2.7,0.4c0.9-1.6,1.3-3.4,1.1-5.2c-1,0.1-2,0.3-2.9,0.4c0.3,1.5,0.6,3,0.9,4.4c0.4,1.7,2.9,1.3,2.9-0.4
			c0-1.6,0-3.1,0.1-4.7c-1,0.1-2,0.3-2.9,0.4c0.3,1.7,0.7,3.3,1,5c0.3,1.4,2.6,1.4,2.9,0c0.5-2.2,0.9-4.4,1.4-6.7
			c-0.9,0.1-1.8,0.2-2.7,0.4c0.7,1.3,1.2,2.6,1.3,4.1c0.2,1.9,3,2,3,0c0-1.8-0.1-3.6-0.1-5.3c-1,0.1-2,0.3-2.9,0.4
			c0.7,1.7,1.3,3.4,2,5.1c0.6,1.5,2.9,1.4,2.9-0.4c0-1.6,0-3.2,0.1-4.7c-1,0.1-2,0.3-2.9,0.4c0.3,1.6,1,3.1,1.8,4.4
			c0.8,1.2,2.8,0.8,2.8-0.8c0-1.9,0-3.8,0-5.7c-0.9,0.3-1.9,0.5-2.8,0.8c0.9,1.9,1.8,3.7,2.7,5.6c0.6,1.3,2.9,0.7,2.8-0.8
			c-0.2-2-0.4-4-0.6-6.1c-0.9,0.3-1.9,0.5-2.8,0.8c1.1,1.7,2.1,3.4,2.8,5.3c0.7,1.8,3.3,1.1,2.9-0.8c-0.5-2.4-1.1-4.7-1.6-7.1
			c-1,0.3-1.9,0.5-2.9,0.8c1.2,3,2.7,5.9,4.5,8.7c0.8,1.2,2.8,0.8,2.8-0.8c-0.1-2.3-0.4-4.6-1.1-6.8c-0.9,0.4-1.8,0.8-2.7,1.2
			c0.9,1.5,1.7,3.1,2.6,4.6c0.8,1.5,3.2,0.5,2.7-1.2c-0.7-2.5-1.4-5-2-7.5c-0.9,0.4-1.8,0.8-2.7,1.2c1.7,3.3,3.7,6.4,5.9,9.4
			c1,1.3,3.2,0.6,2.7-1.2c-0.6-2.3-1.1-4.7-1.7-7c-0.9,0.4-1.8,0.8-2.7,1.2c1.1,2.5,2.5,4.8,4.1,7.1c0.9,1.2,2.7,0.8,2.8-0.8
			c0.1-1.6,0.2-3.2,0.3-4.8c-0.9,0.3-1.9,0.5-2.8,0.8c1,1.9,2,3.9,3,5.8c0.7,1.4,2.7,0.6,2.8-0.8c0.2-2.3-0.3-4.6-1.3-6.7
			c-0.8-1.6-3-0.4-2.7,1.2c0.3,2.1,1,4,1.9,5.9c0.5,0.9,2.1,1,2.6,0c0.8-1.8,1.2-3.7,1-5.7c-1,0.1-2,0.3-2.9,0.4
			c0.6,2.9,1.6,5.7,3.1,8.3c0.7,1.2,2.3,0.8,2.7-0.4c0.8-2.2,1.1-4.6,1-6.9c-0.9,0.3-1.9,0.5-2.8,0.8c0.5,0.6,0.9,1.3,1.4,1.9
			c0.9,1.2,2.6,0.8,2.8-0.8c0.2-1.6,0-3.2-0.4-4.7c-0.5-1.7-2.8-1.3-2.9,0.4c-0.1,1,0,1.9,0.3,2.8c0.9-0.4,1.8-0.8,2.7-1.2
			c-0.7-1-1.4-2.1-2-3.1c-1-1.5-3-0.5-2.7,1.2c0.2,0.9,0.3,1.9,0.5,2.8c0.9-0.4,1.8-0.8,2.7-1.2c-0.9-1.5-1.8-3-2.7-4.4
			c-0.7-1.2-2.9-0.8-2.8,0.8c0.1,1.8,0.6,3.5,1.3,5.1c0.7,1.5,3.4,0.4,2.7-1.2c-1.1-2.8-2.3-5.5-3.4-8.3c-0.7,0.6-1.5,1.1-2.2,1.7
			c2.1,1.1,3.7,2.8,4.7,5c0.7,1.6,3.2,0.4,2.7-1.2c-0.4-1.6-1.2-2.9-2.5-4c-1.3-1-3.2,0.3-2.4,1.8c0.6,1,1.2,2.1,1.7,3.1
			c0.8-0.6,1.6-1.2,2.4-1.8c-1-1.1-1.9-2.2-2.9-3.4c-1.2-1.4-3,0.4-2.4,1.8c0.5,1.2,1.1,2.5,1.6,3.7c0.9-0.5,1.7-1,2.6-1.5
			c-0.8-1-1.5-2.1-2.3-3.1c-0.9-1.3-3.3-0.6-2.7,1.2c0.5,1.7,1.2,3.3,2,4.8c0.9-0.5,1.7-1,2.6-1.5c-1.1-1.8-2.3-3.6-3.4-5.4
			c-1.1-1.7-3.3-0.2-2.6,1.5c0.8,1.9,1.7,3.9,2.5,5.8c0.9-0.5,1.7-1,2.6-1.5c-1.5-2.6-3.3-5.1-5.4-7.3c-1-1-3.1,0-2.5,1.5
			c1,2.4,2.1,4.7,3.5,6.9c0.9-0.5,1.7-1,2.6-1.5c-1.2-1.7-2.6-3.2-4.2-4.5c-1.3-1.1-3.2,0.3-2.4,1.8c1.2,2.2,2.4,4.4,3.6,6.6
			c0.8-0.6,1.6-1.2,2.4-1.8c-1.8-2.1-3.7-4.1-5.5-6.2c-1.1-1.3-3.2,0.4-2.4,1.8c1.3,2.2,2.6,4.5,3.8,6.7c0.9-0.5,1.7-1,2.6-1.5
			c-1.7-2.4-3.6-4.5-5.7-6.5c-1.2-1.1-3.3,0.3-2.4,1.8c1.3,2.2,2.6,4.3,3.9,6.5c0.9-0.5,1.7-1,2.6-1.5c-1.6-2.3-3.2-4.6-4.8-6.9
			C177.6,460.5,175,462,176.1,463.6z"/>
	</g>
</g>
<g>
	<path class="st4" d="M72,205.9C72.1,205.9,72.2,205.9,72,205.9C72.1,205.9,72.1,205.9,72,205.9C72.1,205.9,72.1,205.9,72,205.9z"/>
	<path class="st4" d="M102.7,198.8c-0.1-1-0.1-2-0.2-3c0-0.7-0.5-1.2-1.1-1.4c-0.1-0.2-0.2-0.5-0.3-0.7c-0.8-1.4-2.7-1.4-4.1-1.7
		c-3.1-0.6-6.1-1.6-9-2.8c-0.6-0.3-1.3-0.3-1.8,0.2c0,0-0.1,0.1-0.1,0.1c0,0-0.1,0-0.1,0c-7.9-2.8-14.9-7.4-20.8-13.4
		c-1.2-1.2-2.8-1.6-4.2-1.4c-3.2-3.2-6.9-6-10.2-9.2c-4.1-4.1-7.9-8.5-11.3-13.2c-0.2-0.3-0.5-0.6-0.8-0.8
		c-1.6-5.2-3.3-10.4-2.2-16.1c0.2-1.1,0.1-2-0.3-2.9c0-0.2,0-0.3,0.1-0.5c0.5-3.7,2.3-7.1,2.9-10.7c0.8-1.2,0.9-2.6,0.4-3.8
		c0.1-0.1,0.2-0.3,0.3-0.4c0.4-0.6,0.5-1.4,0.2-2.1c0.2-0.3,0.3-0.7,0.5-1.1c0.3-0.8-0.3-1.6-1-1.8c-0.8-0.2-1.6,0.3-1.8,1
		c0,0,0,0,0,0c-0.2-0.1-0.5-0.1-0.9,0c-0.4,0.1-0.7,0.1-1.1,0.1c-0.3,0-0.7,0-1,0c-1.4-0.5-2.8-1.1-4.2-1.4
		c-0.8-0.2-1.6-0.2-2.3,0.2c-0.8,0.4-1.1,1.1-1.4,1.9c-0.6,1.7-1.1,3.3-1.6,5c-0.1,0.4,0,0.9,0.3,1.3c-2.6,8.7-6.6,17.8-6.3,27
		c0,1.2,0.4,2.1,1,2.9c-0.1,2.1-0.2,4.3-0.1,6.4c-0.6,6.7-0.2,13.4,0.8,20c-0.7,10.3,1.1,20.2,5.4,29.9c0.1,0.1,0.1,0.2,0.2,0.3
		c0,0.1,0,0.2,0,0.3c0,0,0,0,0,0c0,0,0,0,0,0c0,0.3,0.1,0.6,0.2,0.9c0.4,1.9,1,3.9,1.7,5.7c0.2,0.6,0.6,1,1.2,1.1
		c0.6,0.1,1.1-0.2,1.5-0.7c1.4-1.9,2.4-4.2,3.1-6.5c0.6-0.4,1.1-0.8,1.5-1.4c4.7-6.9,10.2-13,16.4-18.6c0,0,0.1,0,0.1-0.1
		c0.7-0.1,1.4-0.2,2.1-0.2c0,0.6-0.1,1.2-0.2,1.8c-0.6,0.1-1,0.5-1.3,1.1c-0.6,1.4-0.8,2.9-0.6,4.4c-0.5,1.4-0.6,3-0.2,4.4
		c0,0.1,0.1,0.3,0.2,0.4c-0.2,0.6-0.2,1.3,0,2c0.2,0.7,0.9,1.2,1.6,1.1c0.8-0.1,1.2-0.7,1.3-1.5c0,0.2,0-0.1,0.1-0.2
		c0,0,0.1-0.2,0.1-0.2c0,0,0,0,0-0.1c0.1-0.1,0.1-0.1,0.2-0.2c0.1-0.1,0.2-0.2,0.3-0.3c-0.2,0.1,0.3-0.2,0.3-0.2
		c0.1-0.1,0.3-0.2,0.4-0.2c0.3-0.2,0.7-0.3,1-0.5c1.3-0.6,2.4-1.4,3.1-2.6c2.1,0.9,4.8,0.6,6.3-1.8c0.2-0.2,0.3-0.4,0.4-0.5
		c0.7,0,1.4-0.1,2-0.3c-0.3,1.4-0.5,2.9-0.7,4.2c-0.1,0.8-0.1,1.5,0,2.2c-0.4,1.7-0.8,3.4-0.6,5.1c-0.1,0.3-0.1,0.7-0.2,1
		c-0.2,0.8,0.2,1.7,1,1.8c0.8,0.2,1.4-0.2,1.7-0.8c0,0,0.1-0.1,0.1-0.1c0.3-0.3,0.5-0.6,0.8-0.9c0.1-0.1,0.2-0.1,0.2-0.2
		c0,0,0,0,0,0c0,0,0,0,0,0c0,0,0,0,0,0c0,0,0.1-0.1,0.1,0c0.1-0.1,0.3-0.2,0.4-0.3c0.3-0.2,0.7-0.4,1-0.6c0.1,0,0.2-0.1,0.3-0.1
		c0,0,0,0,0,0c0.2-0.1,0.4-0.1,0.6-0.2c0.5-0.1,0.8-0.5,1-0.9c0.2-0.1,0.5-0.2,0.7-0.3c2.3-1.2,4.9-2,7.6-2.6
		c0.9-0.2,1.7-0.7,2.3-1.4c0.6-0.1,1.1-0.4,1.5-0.7c0.4,0.2,0.7,0.3,1.1,0.5c0,0,0,0.1,0,0.1c-0.3,0.1-0.6,0.3-0.7,0.6
		c-1.1,2.4-2.3,4.8-3.6,7.1c-1,1.7,1.6,3.2,2.6,1.5c0.3-0.5,0.5-1,0.8-1.5c0.4,0.1,0.8,0.1,1.2-0.1c1.7-0.8,3.4-1.6,5.2-2.3
		c1.6-0.6,3.3-1,4.9-1.8c1.2-0.6,2.2-1.5,2.7-2.7C102.2,200.1,102.7,199.6,102.7,198.8z"/>
</g>
<g>
	<g>
		<path class="st4" d="M186.7,472.9c0-0.1,0-0.1,0-0.2c-0.1,0.5-0.3,1-0.4,1.5c-0.9,0-1.1,0.2-0.6,0.5c0.2,0.2,0.4,0.4,0.6,0.6
			c0.4,0.4,0.7,0.8,1,1.2c0.5-0.8,1-1.7,1.5-2.5c-0.6-0.2-1.1-0.7-1.5-1.2c-0.5,0.8-1,1.7-1.5,2.5c1.2,0.2,2.1,0.7,2.9,1.6
			c-0.1-0.6-0.2-1.2-0.2-1.8c0.3-0.4,0.4-0.1,0.2-0.3c-0.1-0.1-0.4-0.2-0.5-0.2c-0.6-0.3-1.2-0.7-1.8-1.1c-1.1-0.7-2.2-1.4-3.2-2.2
			c-0.4,0.9-0.8,1.8-1.2,2.7c1.7,0.4,3,1.1,4.2,2.4c0.6-0.8,1.2-1.6,1.8-2.4c-3.2-1.7-6.5-3.4-9.7-5.1c-1.5-0.8-3.1,1.1-1.8,2.4
			c1.2,1.2,2.4,2.4,3.6,3.6c0.5-0.8,1-1.7,1.5-2.5c-1.1-0.2-2.1-0.5-3-1.1c-0.4,0.9-0.8,1.8-1.2,2.7c1.5,0.4,2.9,1.1,4.2,2.1
			c0.3-0.9,0.5-1.9,0.8-2.8c-2,0.1-3.8-0.3-5.6-1.2c-0.4,0.9-0.8,1.8-1.2,2.7c1.2,0.5,2.3,0.9,3.5,1.4c1.6,0.6,2.7-2,1.2-2.7
			c-1.1-0.5-2.3-1-3.4-1.5c-0.5-0.2-1.1-0.5-1.6-0.7c-0.3-0.1-0.6-0.3-0.9-0.4c-0.6-0.4-0.7-0.2-0.3,0.7c-0.2,0.3-0.5,0.6-0.7,0.9
			c-0.2,0-0.5,0-0.7,0.1c-0.3-0.3-0.7-0.7-1-1c0,0,0,0.1,0,0.1c0.3-0.6,0.7-1.2,1-1.8c-1,0.4-2,0.6-3.1,0.8c-0.9,0.1-1.1,1.1-1,1.8
			c0.1,0.7,0.4,1.2,0.9,1.6c0.2,0.2,0.5,0.3,0.7,0.5c0.1,0.1,0.2,0.1,0.3,0.2c0.3,0.3,0.4,0.2,0.2-0.2c-0.2,0.7,0.3,1.7,1,1.8
			c2.2,0.4,4.3,0.8,6.5,1.1c1,0.2,2.1,0.4,3.1,0.5c0.5,0.1,1,0.2,1.4,0.3c0.3,0,0.5,0.1,0.8,0.1c0.3,0.1,0.3,0.1,0-0.2
			c0.3-0.6,0.7-1.2,1-1.8c-1.8,0.7-4.2-0.5-6-0.9c-2-0.4-3.9-0.6-5.9-0.7c-4.2-0.2-8.4,0.2-12.6,0.5c0.1,1,0.3,2,0.4,2.9
			c4.2-0.9,8.7,0.1,12.9,0.6c4.5,0.5,9,1.1,13.5,1.6c1,0.1,1.7-1.1,1.4-1.9C187.8,476.5,187.3,474.7,186.7,472.9
			c-0.5-1.9-3.4-1.1-2.9,0.8c0.5,1.8,1.1,3.6,1.6,5.5c0.5-0.6,1-1.3,1.4-1.9c-4.7-0.6-9.3-1.1-14-1.7c-4.4-0.5-8.9-1.3-13.2-0.4
			c-1.6,0.3-1.3,3.1,0.4,2.9c4.4-0.4,8.7-0.7,13.1-0.5c2.2,0.1,4.4,0.4,6.5,1c1.9,0.5,3.8,1.3,5.8,0.5c0.7-0.3,1.3-1,1-1.8
			c-0.7-2.3-3.8-2.2-5.8-2.6c-2.7-0.5-5.5-0.9-8.2-1.4c0.3,0.6,0.7,1.2,1,1.8c0.3-0.8,0.1-1.6-0.5-2.3c-0.3-0.4-1.6-1-1.7-1.3
			c-0.3,0.6-0.7,1.2-1,1.8c1.1-0.2,2.1-0.4,3.1-0.8c0.7-0.3,1.3-1,1-1.8c-0.8-2.4-4.4-0.9-3.3,1.4c0.6,1.1,2.1,1.5,3.2,2
			c1.4,0.7,2.9,1.3,4.3,2c0.4-0.9,0.8-1.8,1.2-2.7c-1.2-0.5-2.3-0.9-3.5-1.4c-1.6-0.6-2.6,1.9-1.2,2.7c2.2,1.2,4.6,1.8,7.1,1.6
			c1.5-0.1,2-1.9,0.8-2.8c-1.5-1.1-3.1-1.9-4.9-2.4c-1.7-0.5-2.6,1.8-1.2,2.7c1.1,0.7,2.4,1.2,3.7,1.4c1.4,0.2,2.6-1.4,1.5-2.5
			c-1.2-1.2-2.4-2.4-3.6-3.6c-0.6,0.8-1.2,1.6-1.8,2.4c3.2,1.7,6.5,3.4,9.7,5.1c1.5,0.8,3-1.1,1.8-2.4c-1.5-1.6-3.4-2.7-5.5-3.1
			c-1.7-0.4-2.5,1.8-1.2,2.7c1.7,1.2,3.4,2.5,5.3,3.4c1.5,0.7,3.1,0.7,4.2-0.7c0.4-0.6,0.2-1.4-0.2-1.8c-1.1-1.3-2.6-2.1-4.2-2.4
			c-1.5-0.3-2.4,1.3-1.5,2.5c0.8,1,1.7,1.5,2.8,2c1.6,0.6,2.3-1.5,1.5-2.5c-0.8-1-2-2.5-3.3-2.8c-1.4-0.3-2.7,0.7-2.3,2.2
			C184.3,475.5,187.2,474.7,186.7,472.9z"/>
	</g>
</g>
<path class="st4" d="M131.3,475c-0.1-0.3-0.3-0.6-0.4-0.9c0-0.5-0.1-0.9-0.4-1.3c-5.2-7.9-12.7-13.9-21.6-17.2
	c-0.9-0.3-1.8-0.1-2.6,0.5c-0.5-0.3-1-0.5-1.6-0.5c-2.7,0-5.3,0.4-7.8,1.3c-2.4,0.9-5.3,2.1-6,4.9c-0.2,0.8-0.2,1.6,0.1,2.3
	c-1.2,2.2-1.7,4.8-2.1,7.4c0,0.1,0,0.1,0,0.2c-0.3,0.8-0.8,1.6-1.3,2.3c-1.2,1.7,0.4,4.8,2.6,4.5c4.2-0.5,8.5-1.1,12.8-1.5
	c0,0,0.1,0,0.1,0c3.4,0.7,6.9,0.7,10.2-0.1c2.3,0.1,4.6,0.3,6.9,0.7c1.2,0.2,2.2-0.2,2.8-0.8c0.7,0.1,1.5,0.2,2.2,0.2
	c0.2,0.4,0.4,0.7,0.6,1c0.2,0.2,0.4,0.3,0.6,0.5c0.5,0.3,1,0.4,1.5,0.4h0.5c0.4,0,0.8-0.1,1.2-0.3c0.4-0.1,0.7-0.3,1-0.6
	c0.3-0.3,0.5-0.6,0.6-1c0.2-0.4,0.3-0.7,0.3-1.2C131.4,475.5,131.3,475.3,131.3,475z"/>
<g>
	<path class="st6" d="M103.8,225.2C103.8,225.2,103.8,225.2,103.8,225.2c0.1,0.1,0.2,0.1,0.2,0.2c0,0,0.1,0,0.1,0.1
		c-0.5-0.5-0.7-0.6-0.7-0.5c0.1,0.1,0.2,0.2,0.2,0.2C103.7,225.1,103.7,225.1,103.8,225.2z"/>
	<path class="st6" d="M179.7,351c-1.1-2.7-2-5.5-2.5-8.4l-0.6-4.9c-0.1-0.7-0.2-1.4-0.4-2.1c-0.2-2.9-0.9-5.7-1.4-8.5
		c-0.1-1-0.2-2.1-0.2-3.1c0-0.6-0.1-1.3-0.3-1.9c-0.4-6.8-0.9-13.5-1.6-20.3c-0.1-1-0.3-1.9-0.6-2.8c0.2-7.5-0.5-14.9-2.1-22.2
		c-0.2-9.4,0.1-18.8,1-28.2c0.7-1.1,1.4-2.2,2.1-3.2c0-0.1,0.1-0.1,0.1-0.2c-0.2-0.4-0.4-0.8-0.5-1.2c0.5-0.2,0.9-0.5,1.2-1
		c0.5-0.9,0.6-1.9,0.6-2.9c0.1-1.2,0.1-2.5,0.2-3.7c0.1-2.5,0.2-5.1,0.2-7.6c0-1.1,0-2.3,0-3.4c0-1,0.1-2.1-0.4-3
		c-0.6-1.1-1.5-1.3-2.5-1.1c0.9-1,0.9-2.6-0.3-3.6c-0.7-0.6-1.6-0.8-2.5-1.1c-1.1-0.3-2.3-0.6-3.4-1c-2.3-0.8-4.4-1.8-6.5-3
		c0,0-0.1,0-0.1-0.1c0-0.1-0.1-0.2-0.1-0.2c-0.1-0.3-0.2-0.6-0.2-0.9c-0.5-0.1-1-0.1-1.6-0.2c-0.7,0-1.4,0.1-2.1,0.3
		c-0.3,0.1-0.7,0.2-1,0.4c-0.4-0.2-0.8-0.4-1.3-0.6c-0.9-0.5-1.9-0.7-2.9-0.6l-2,0.3c-1.3,0.4-2.4,1-3.3,1.9c-0.4,0.5-0.8,1-1.2,1.5
		c-0.7,1.2-1,2.4-1,3.8v0.1c0,0.6,0.1,1.2,0.2,1.7c-0.2,0.3-0.4,0.5-0.6,0.8c-0.7,0.3-1.3,0.8-1.8,1.3c0,0.1-0.1,0.1-0.1,0.2
		c0,0-0.1,0.1-0.1,0.1c-0.5,0.4-0.9,1-1.2,1.5c0,0,0,0,0,0c0,0,0,0,0,0c-0.3,0.6-0.5,1.2-0.8,1.8c0,0,0,0,0,0c0,0,0,0.1,0,0.1
		c-0.7,0.2-1.4,0.5-2,0.8c-0.8,0.4-1.4,1-2,1.6c-0.1,0-0.1,0.1-0.2,0.1c-0.8,0.4-1.6,1.1-2.2,2c-3.9,0.3-7.8,0.1-11.7,0.6
		c-1,0.1-1.8,0.3-2.6,0.6c-0.3-0.1-0.6-0.2-0.9-0.3c-1.9-0.5-3.8-1-5.6-1.8c-2-0.9-3.9-1.9-5.7-3.1c-0.4-0.3-0.9-0.6-1.3-0.9
		c0.1,0.1,0.2,0.1,0.3,0.2c-0.2-0.1-0.3-0.3-0.5-0.4c0,0-0.1,0-0.1-0.1c0,0-0.1,0-0.1-0.1c0,0,0,0,0,0c-0.1-0.1-0.2-0.2-0.2-0.2
		c-0.8-0.7-1.6-1.5-2.4-2.4c-0.5-0.6-1.1-1-1.9-1.4c-0.6-1.8-2.2-3.2-4.3-3.2c-1.5,0-2.9,0.8-3.8,2c-1.1,0-2.2,0.2-3.3,0.6
		c-1.6,0.6-3.1,1.5-4.6,2.2c0,0,0,0,0,0c-1.3,0.1-2.7,0.1-4,0.5c-1.4,0.3-2.7,0.9-4,1.7c-0.3,0.2-0.5,0.3-0.8,0.5
		c-0.5-0.2-1.1-0.4-1.7-0.4c-1,0-2,0.4-2.8,1.1c-0.4-0.2-0.9-0.3-1.4-0.3c-2.2,0-4.2,1.7-4.5,3.9c-2.2,1.6-4.2,3.5-6.1,5.6
		c-3.3,3.6-6.6,7.2-9.9,10.8c-1.2,1.3-2,3.1-2.1,4.9c-0.7,0.4-1.3,0.8-1.9,1.4c-0.4,0.5-0.8,1-1.2,1.5c-0.5,0.9-0.8,1.9-1,2.9
		c-1.1,0.8-1.9,2.1-1.8,3.6c0.1,2.4,2,4.5,4.5,4.5c0.5,0,0.9-0.1,1.3-0.2c0.2,0.1,0.4,0.2,0.6,0.2c0.2,0.1,0.5,0.2,0.7,0.3
		c0.4,1.8,1.8,3.2,3.6,3.5c0.7,0.9,1.8,1.5,3,1.6c0.4,0.9,1.1,1.6,1.9,2c0.4,1.3,1.3,2.3,2.6,2.8c0.5,0.5,1.1,0.8,2,0.8
		c1.3,0,2.1-0.7,2.6-1.6c0.8-0.7,1.4-1.6,1.5-2.6c0.6-0.6,1-1.4,1.2-2.3c1.2-0.7,2.2-1.9,2.3-3.4c0.1,0,0.2-0.1,0.3-0.1
		c1.5-0.9,3-2.6,3.4-4.3c0.3-0.2,0.5-0.4,0.8-0.6c0.5-0.4,1.1-0.8,1.5-1.3c0.2-0.3,0.5-0.6,0.7-0.9c0.2-0.2,0.5-0.6,0.7-0.9
		c0,0,0-0.1,0-0.1c0.2-0.2,0.4-0.3,0.6-0.5c0.2-0.2,0.4-0.3,0.5-0.5c0.5-0.6,0.9-1.1,1.3-1.7c0.1-0.1,0.1-0.2,0.2-0.3
		c0.5-0.4,1-0.8,1.4-1.3c0.2-0.2,0.4-0.5,0.6-0.7c0.4,1.7,1.7,3,3.4,3.4c0.8,5,2,9.8,3.1,14.7l3.9,17.1c0,0.3,0,0.6,0.1,0.9
		c0.2,2.8,0.4,5.6,0.8,8.3c0.4,2.7,1.2,5.2,2.4,7.7c0,1.6,0,3.3,0,4.9c0,0.3,0,0.5,0,0.8c-0.5,0.5-0.8,1.2-1,1.8
		c-0.5,0.9-0.7,1.9-0.6,2.9c0.1,0.7,0.2,1.3,0.3,2c0.2,0.7,0.5,1.3,0.8,1.8c-2.2,0.8-2.4,3.9-0.8,5.2c-0.3,0.7-0.4,1.5-0.5,2.4
		c0,0.6-0.1,1.3-0.1,2c-1,1-1,2.7-0.3,3.9c-1.2,0.9-1.5,2.6-0.9,3.9c-0.2,0.6-0.3,1.2-0.1,1.9c-0.4,0.5-0.6,1.1-0.5,1.7
		c0.1,0.9,0,1.9-0.1,2.8c-0.3,2.2-0.7,4.5-1,6.7c-0.1,0.6-0.1,1.1,0,1.6c-0.1,0.3-0.2,0.7-0.2,1.1c0.1,2.8,0,5.7-0.2,8.5
		c0,0.3,0.1,0.7,0.2,1c-0.1,0.2-0.1,0.3-0.2,0.5c-0.1,0.3-0.1,0.5-0.1,0.8c-1.5,1.7-0.9,5.1,2.1,5.1c1.5,0,2.4-0.9,2.7-2
		c0,0,0.1,0,0.1,0c0.7,0,1.3-0.2,1.8-0.6c0,0,0.1,0,0.1,0c0.4,0.2,0.8,0.3,1.3,0.3c0.7,0,1.2-0.2,1.6-0.5c1.2,0.2,2.3,0.2,3.5-0.2
		c0.4,0.2,0.9,0.4,1.5,0.4c0.8,0,1.4-0.3,1.9-0.7c1.2,0.1,2.4,0.2,3.5,0.3c1,0.1,2,0.2,3.1,0.1c1.1-0.1,2.2-0.3,3.3-0.5
		c0.5,0,1,0,1.6-0.1c0.6,0,1.1-0.1,1.6-0.3c1.8,0.1,3.6,0.2,5.4,0.3c0.1,0.1,0.3,0.1,0.5,0.2c1.4,0.6,3.3,0.4,4.8-0.2
		c0.1,0,0.1,0,0.2,0c1,0.3,2,0.4,3,0.1c1,0,1.9-0.3,2.8-0.9c0,0,0.1,0,0.1-0.1c0.5,0,1,0,1.5,0c1.1,0,2.3-0.1,3.4-0.2
		c1,0.2,2,0.3,3,0.3c1.5,0,2.9-0.1,4.4-0.1c3.1-0.1,6.2-0.2,9.3-0.3c0.9,0,1.9-0.2,2.8-0.6c0.4,0,0.9-0.1,1.3-0.2
		c0.2,0.1,0.4,0.1,0.7,0.2c1.6,0.7,3.3,1,5.1,0.5c1.2-0.3,2.4-1.1,3.4-2c0.6,0,1.3-0.2,1.9-0.3l1.6-0.7c0.3,0,0.6-0.1,0.9-0.2
		c1.6-0.4,2.6-1.2,3.8-2.2C179.6,356.8,180.6,353.2,179.7,351z"/>
</g>
<path class="st7" d="M91.6,366.9c-6.4,0-6.4,10,0,10C98,376.9,98,366.9,91.6,366.9z"/>
<path class="st8" d="M178.8,352.8c-0.4-2.5-0.8-5-1.1-7.5c-1.4-10-2.3-20.1-3.3-30.2c-0.1-0.5-0.4-0.9-0.8-1.2
	c-0.1-2.3-0.3-4.6-0.5-6.9c-0.4-5.1-0.9-10.2-1.5-15.3c-0.1-4.2-0.6-8.5-1.5-12.6c0.3-1.9-2.6-2.7-2.9-0.8c0,0,0,0.1,0,0.1
	c0,0.1-0.1,0.1-0.1,0.2c-0.5,2.5-1,5-1.5,7.5c-2.6,10.8-6.9,21.2-11.8,31.1c-3.1,6.2-6.4,12.3-9.7,18.4c-2.8,5.1-5.6,10.2-9.1,14.9
	c-3.8,5.2-8.6,9.8-14.7,12.1c-1.4,0.6-1.4,3.2,0.4,2.9c3.4-0.4,6.7-0.9,10.1-1.3c0.2,0.2,0.6,0.4,1,0.4c5.2-0.2,10.5-0.5,15.7-0.7
	c4.2-0.2,8.5-0.2,12.6-0.9c0.1,0,0.3,0,0.5,0c1-0.1,2-0.2,2.9-0.3c0,0.9,0.7,1.9,1.8,1.5c1.5-0.5,3-1,4.4-1.6c0.4,0,0.7-0.1,1-0.3
	c0.8,0,1.6-0.2,2.3-0.4c1.8-0.1,3.5-0.7,4.5-2.5c0.1-0.2,0.2-0.5,0.3-0.7c0,0,0.1-0.1,0.1-0.1C179.9,357.3,179.1,354.8,178.8,352.8z
	"/>
<path class="st4" d="M217.3,63.2c-0.1-0.2-0.2-0.4-0.3-0.6c-0.9-1.8-1.9-3.5-2.9-5.2c0.3-1.1,0.2-2.4-0.7-3.7
	c-2.4-3.7-5.1-7.2-7.9-10.5c0.3-1.4-0.1-2.9-1.4-4.2c-0.6-0.5-1.1-1.1-1.7-1.6c-9.4-8.7-20.2-17.1-32.9-17.8
	c-0.8-2.9-3.9-5.2-7.3-3.3c-1.3,0.7-2.5,1.4-3.8,2.1c-0.5,0.3-1,0.6-1.5,0.9c-1.8-0.7-4.2-0.3-5.7,1c-0.6,0.6-1.1,1.1-1.5,1.8
	c-1.5-0.7-3.1-1.3-4.8-1.8c-2.4-1.4-5-2.5-7.9-2.9c-3.3-0.5-6.7-0.8-10.1-1.1c-1.8-0.2-3.5-0.5-5.1-0.1c-0.6-0.2-1.2-0.2-2-0.2
	c-3.1,0.3-6.3,0.7-9.5,1.3c-3.3-0.3-6.6,0.4-9.8,2.2c-0.2,0.1-0.4,0.2-0.5,0.4c-1.5,0.5-2.9,1.1-4.3,1.7c-1.8,0.4-3.4,1.3-5,2.7
	c-5,2.3-9.7,4.9-14.2,8c-0.5,0.1-1,0.3-1.4,0.6c-7.7,4.6-14.8,10.3-20.7,17.1c-1.5,1.8-3,3.6-4.4,5.5c-0.1,0.1-0.3,0.2-0.4,0.2
	c-1.9,1.2-3,3.2-2.9,5.2c-0.6,1.2-1.1,2.4-1.4,3.6c-0.1,0.2-0.2,0.3-0.3,0.5c-0.4-0.1-0.9,0-1.3,0.4c-2.2,2.4-4.1,5-5.6,7.9
	c-0.5,0.9,0,1.9,0.9,2.2c4.6,1.7,8.6,6.1,8.4,11.2c0,1.2,1.7,2.1,2.6,1.1c1.3-1.6,1.6-3.4,1.7-5.4c0.3-1.5,0.6-2.9,0.7-4.4
	c0.3-0.8,0.8-1.6,1.5-2.3c0.6-0.6,0.5-1.5,0-2c0.2-0.3,0.3-0.6,0.5-0.9c1-2.6,2.1-5.2,3.1-7.8c0.1-0.2,0.2-0.5,0.2-0.7
	c1-1.1,1.8-2.5,2.8-3.7c1.1-1.3,2.4-2.5,3.7-3.6c-0.2,0.6-0.2,1.2-0.3,1.9c0,0.8,0.1,1.6,0.4,2.2c-0.5,0.4-0.8,1-0.7,1.6
	c0.6,3.1,1.5,6.1,2.6,9c0.2,0.6,0.7,1.1,1.4,1.1c0.7,0,1.2-0.5,1.4-1.1c0.5-1.3,0.8-2.3,1.5-3.5c0.6-1.2,1.3-2.4,2.1-3.5
	c0,0,0-0.1,0-0.1c0.6-0.4,1.2-0.9,1.6-1.5c1.2-1.9,5-2.9,6.7-4.3c2.2-1.7,3.7-2.9,5.8-3.6c0.2,0,0.3-0.1,0.5-0.1c0,0,0.1,0,0.1,0
	c-1.6,4.6-2.3,9.7-2.5,14.6c-1-0.2-2.2,0.7-1.8,1.9c0.4,1.2,0.7,2.5,1.1,3.7c0.1,0.6,0.2,1.2,0.2,1.8c0.1,1.3,0.3,2.8,1.6,3.4
	c0.7,0.3,1.3,0.2,1.8-0.2c3.5-3,7.7-5.3,12.1-6.6c2.2-0.7,4.4-1.1,6.7-1.4c1.8-0.2,3.5-0.3,5.2-0.9c2.1,0,4.2,0.2,6.3,0.4
	c0.5,0.1,1,0,1.4,0c-0.5,0.6-1,1.2-1.4,1.8c-0.6-0.3-1.4-0.2-1.8,0.2c-0.2,0.3-0.4,0.5-0.6,0.8c-0.7-0.2-1.6,0-1.8,1l-0.4,1.6
	c-2.1,2.4-4.3,4.8-6.6,7.1c-1,1,0,3.1,1.5,2.5c4.8-2,9.9-2.9,15.1-2.6c2.5,0.1,5.1,0.8,7.6,0.6c1.3-0.1,2.6-0.4,3.9-0.7
	c0.4-0.1,0.8-0.2,1.1-0.3c0,0.4,0,0.8,0,1.2c-1.3,0.7-2.1,1.9-2.4,3.2c-0.2,0.1-0.4,0.1-0.5,0.2c-0.1,0-0.1,0.1-0.2,0.1
	c-0.1,0-0.1-0.1-0.2-0.1c-0.7-0.3-1.5,0-1.9,0.6c-1,1.7-1.9,3.5-2.7,5.3c0,0,0,0,0,0c0,0,0,0,0,0c0,0,0,0,0,0
	c-0.7,1.1-1.4,2.3-2.2,3.3c-0.4,0.6-0.1,1.7,0.5,2.1c0.8,0.4,1.6,0.1,2.1-0.5c0.1-0.1,0.2-0.3,0.3-0.4c0,0,0.1-0.1,0.1-0.1
	c0,0,0,0,0.1-0.1c0.2-0.2,0.4-0.4,0.5-0.6c0.4-0.4,0.8-0.8,1.3-1.2c0.1-0.1,0.1-0.1,0.2-0.2c0.4,0.5,1,0.7,1.6,0.5
	c0.9-0.3,1.8-0.6,2.7-0.8c0.4-0.1,0.7-0.4,0.9-0.8c0.5-0.2,1-0.5,1.5-0.7c0.2-0.1,0.4-0.3,0.5-0.5c0,0,0.1,0,0.1,0
	c1.4,0,2.5-0.5,3.3-1.2c1,0.6,2.3,0.8,3.7,0.5c7.3-1.9,14.6-3.3,22.1-4c3.1-0.3,6.7,0,9.9-0.7c4.6,6.1,8.7,12.4,11.6,19.5
	c0.5,1.2,1.1,2.3,1.8,3.2c-0.1,0.7-0.1,1.4,0,2.1c0,0.1,0,0.2,0.1,0.3c0,0.2,0,0.4,0,0.5c0,0.3,0,0.5,0,0.8c0,0.3-0.2,1.2,0,0
	c-0.2,1.2-0.1,2.3,0.3,3.3c0.6,2.1,2.6,3.9,4.8,3.8c1.8-0.1,3.3-0.9,4.1-2.3c0.4-0.1,0.7-0.3,1-0.5c1.6-1,2.5-2.5,2.6-4.4
	c1.4-0.6,2.8-1.5,4.1-2.5c0.3,1.9,0.6,3.9,0.9,5.8c0.1,0.4,0.2,0.8,0.4,1.1c-0.3,2.1-0.2,4.3,0.3,6.4c0,1.3,0.1,2.7,0.2,4
	c0,0.5,0.3,0.9,0.7,1.2c-0.2,0.8-0.4,1.7-0.7,2.5c-0.3,0.2-0.6,0.6-0.6,1.2c0,0.3,0,0.5,0,0.8c0,1.8,2.4,1.9,2.9,0.4
	c0.2-0.5,0.3-0.9,0.5-1.4c0,0,0.1,0,0.1,0c0.4,0.1,0.8,0.1,1.2-0.2c0.5-0.3,0.8-0.7,1.1-1.1c0.2-0.3,0.4-0.8,0.5-1.2
	c0.2-0.8,0.1-1.7-0.2-2.5c0.3-0.6,0.6-1.2,0.9-1.8c0.3-0.2,0.6-0.4,0.7-0.9c0.2-0.5,0.3-1,0.5-1.5c0.5-1,0.9-1.9,1.4-2.9
	c0.7-1.4,1.3-2.8,1.4-4.2c1.6-1.7,2.7-3.9,3.4-6.4c1.8-5.9,2.7-12.8,2.8-19C226.5,83.6,223.2,71.7,217.3,63.2z"/>
<g>
	<g>
		<path d="M56.3,275.1c-1.1,1.2-1.9,2.5-2.5,4.1c-0.2,0.5,0.1,1,0.5,1.3c14.2,9.7,26.8,21.5,37.4,35.1c0.9,1.1,2.5-0.5,1.6-1.6
			c-10.7-13.7-23.5-25.6-37.8-35.4c0.2,0.4,0.3,0.8,0.5,1.3c0.5-1.1,1.1-2.2,2-3.1C58.9,275.6,57.3,274,56.3,275.1L56.3,275.1z"/>
	</g>
</g>
<g>
	<g>
		<path d="M93,459.5c-0.7-16-0.8-32-0.1-48c0.3-8.1,0.8-16.1,1.4-24.2c0.3-3.8,1-7.6,1.4-11.5c0.2-2.4,1.3-9.4-2.6-9.7
			c-1.4-0.1-1.4,2.2,0,2.3c-0.1,0,0,0,0.1,0.1c0,0,0.1,0.3,0.2,0.4c0.2,0.7,0.3,1.4,0.3,2.1c0.1,1.9-0.1,3.9-0.3,5.8
			c-0.4,3.9-1.1,7.7-1.4,11.5c-1.2,15.1-1.8,30.3-1.8,45.5c0,8.6,0.2,17.1,0.6,25.7C90.8,460.9,93,460.9,93,459.5L93,459.5z"/>
	</g>
</g>
<g>
	<g>
		<path d="M185.7,454.4c-3.1-15-5.4-30-6.7-45.3c-1.2-15-1.7-30-2.2-45c0,0.1-0.1-1.4-0.2-0.9c0,0,0.1-0.1,0.1-0.1
			c0.1-0.2,0.3-0.5,0.5-0.7c0.5-0.8,1-1.6,1.6-2.4c0.8-1.2,1.6-2.4,2.4-3.6c-0.6-0.4-1.3-0.8-1.9-1.1c-2.8,5.1-8.8,6.8-14.3,7.6
			c-3.2,0.4-6.4,0.5-9.6,0.6c-4.2,0.1-8.3,0.3-12.5,0.4c-8.3,0.3-16.6,0.6-24.9,0.9c-4.2,0.1-8.3,0.3-12.5,0.4
			c-3.9,0.1-7.8,0.1-11.7,0.5c-3,0.3-6.4,1.5-7.4,4.6c-0.8,2.5,0.1,5.3,2.7,6.2c1.4,0.4,2-1.7,0.6-2.2c-2.5-0.8-1.2-4.2,0.4-5.2
			c2.7-1.7,6.6-1.3,9.6-1.4c7.9-0.3,15.8-0.6,23.7-0.9c7.8-0.3,15.6-0.6,23.4-0.8c6.6-0.2,13.3-0.1,19.8-1.2
			c5.7-0.9,11.6-3.1,14.5-8.4c0.7-1.3-1.2-2.3-1.9-1.1c-0.7,1.1-1.4,2.1-2.1,3.2c-0.8,1.1-1.8,2.3-2.3,3.6c-0.5,1.1-0.1,2.9-0.1,4
			c0.1,2,0.1,3.9,0.2,5.9c0.1,3.9,0.3,7.8,0.4,11.8c0.6,15.3,1.7,30.5,3.7,45.7c1.2,8.6,2.8,17.1,4.6,25.6
			C183.9,456.4,186,455.8,185.7,454.4L185.7,454.4z"/>
	</g>
</g>
<g>
	<g>
		<path d="M49.3,87.4c-0.4-7-6.7-11.7-13.1-13.1c-5.6-1.2-12.8-2-18.1,1c-5.4,3.1-7.2,10.7-6.6,16.5c0.7,6.3,3.8,12.5,8.9,16.4
			c6.2,4.7,16,7.4,23.2,3.4c1.3-0.7,0.1-2.7-1.1-1.9c-5.8,3.3-13.4,1.3-18.8-2c-4.9-2.9-8.2-8-9.4-13.5c-1.2-5.2-0.4-11.6,3.5-15.6
			c1.8-1.9,4.7-2.5,7.2-2.7c2.7-0.2,5.5-0.1,8.2,0.3c6.2,1,13.5,4.2,13.9,11.4C47.1,88.8,49.4,88.8,49.3,87.4L49.3,87.4z"/>
	</g>
</g>
<g>
	<g>
		<path d="M218,132.3c8.6-0.9,16.9,5.1,17.1,14.1c0.2,8.8-8.4,15.6-16.5,16.8c-5,0.7-10.5-1.1-13.3-5.5c-0.8-1.2-2.7-0.1-1.9,1.1
			c2.9,4.4,8,6.8,13.2,6.7c4.8-0.1,9.6-2,13.4-5c3.8-3,6.7-7.3,7.3-12.2c0.6-4.8-1.2-9.8-4.6-13.2c-3.8-3.9-9.3-5.7-14.7-5.1
			C216.5,130.2,216.5,132.4,218,132.3L218,132.3z"/>
	</g>
</g>
<g>
	<g>
		<path d="M226,145.5c-5.1-5.6-13.8-5.9-19.2-0.7c-1,1,0.6,2.6,1.6,1.6c4.6-4.4,11.8-4,16,0.7C225.4,148.1,227,146.5,226,145.5
			L226,145.5z"/>
	</g>
</g>
<g>
	<g>
		<path d="M216.1,144.1c1.7,5,0.4,10.7-3.3,14.4c-1,1,0.6,2.6,1.6,1.6c4.3-4.2,5.8-10.9,3.9-16.6
			C217.8,142.2,215.7,142.7,216.1,144.1L216.1,144.1z"/>
	</g>
</g>
<g>
	<g>
		<path d="M42.5,96.7c-2-9-10.6-15.8-19.8-15.7c-1.4,0-1.5,2.3,0,2.3c8.2-0.1,15.9,6,17.6,14C40.6,98.7,42.8,98.1,42.5,96.7
			L42.5,96.7z"/>
	</g>
</g>
<g>
	<g>
		<path d="M29.8,84.2c-5,5.3-6.9,13.2-4.7,20.2c0.4,1.4,2.6,0.8,2.2-0.6c-1.9-6.2-0.4-13.2,4.1-18C32.4,84.7,30.8,83.1,29.8,84.2
			L29.8,84.2z"/>
	</g>
</g>
<g>
	<g>
		<path d="M87.7,485.8c4.5,1.9,9.6,1.3,14.3,1.2c5.3-0.1,10.5-0.3,15.8-0.4c2.6-0.1,5.1-0.1,7.7-0.2c1.2,0,2.5-0.1,3.7-0.1
			c1,0,2.2,0.1,2.9-0.8c0.6-0.7,0.6-1.7,0.7-2.6c0.2-1.3,0.4-2.7,0.5-4c0.1-1.5-0.7-3.3-1.2-4.8c-2.6-7.1-8-13.2-14.7-16.8
			c-6.6-3.6-15.7-5.2-22.4-1c-3.9,2.5-6.1,6.7-7.3,11.1c-1.5,5.3-1.8,11-1.4,16.5c0.1,1.2,1.9,1.6,2.2,0.3c0.4-1.8,0.8-3.6,1.2-5.4
			c-0.4,0.3-0.7,0.6-1.1,0.8c7.9-0.1,15.8-0.3,23.7-0.4c3.9-0.1,7.8-0.2,11.6-0.2c1.6,0,3.3,0.1,4.9,0.5c0.6,0.2,1.5,0.8,2.2,0.7
			c0.4,0,0.7-0.3,1-0.5c0.3-0.2,0.6-0.6,0.6-1c-0.7-12-1.4-24-2.1-36c-0.3-6-0.7-12.1-1-18.1c-0.3-5.9-0.8-11.9,0.3-17.8
			c1.1-6.5,2.8-12.9,4.3-19.3c0.3-1.4-1.8-2-2.2-0.6c-1.3,5.8-2.8,11.6-4,17.4c-1.2,5.8-1.2,11.6-0.8,17.5
			c0.7,12.1,1.4,24.2,2.1,36.3c0.4,6.9,0.8,13.7,1.2,20.6c0.2-0.3,0.4-0.6,0.6-1c-0.2,0.1-0.4,0.2-0.6,0.4c0.4,0,0.8,0,1.1,0
			c-2.9-1.4-6.1-1.4-9.2-1.4c-3.7,0.1-7.4,0.1-11.1,0.2c-7.5,0.1-15,0.2-22.5,0.4c-0.5,0-1,0.3-1.1,0.8c-0.4,1.8-0.8,3.6-1.2,5.4
			c0.7,0.1,1.5,0.2,2.2,0.3c-0.3-4.5-0.1-9.1,0.8-13.5c0.7-3.7,2-7.5,4.7-10.3c5.2-5.4,14.1-4.5,20.4-1.7
			c6.2,2.8,11.3,7.7,14.4,13.7c0.8,1.5,1.4,3.1,1.9,4.7c0.2,0.7,0.4,1.4,0.5,2.1c0,1-0.2,2.1-0.3,3.1c-0.1,0.5,0,1.3-0.2,1.8
			c-0.2,0.4-0.1,0.2-0.5,0.3c-0.2,0.1-0.5,0-0.7,0c-1.2,0-2.5,0.1-3.7,0.1c-2.3,0.1-4.6,0.1-6.9,0.2c-5.2,0.1-10.4,0.3-15.6,0.4
			c-4.8,0.1-10.1,0.8-14.7-1.1C87,483.1,86.4,485.3,87.7,485.8L87.7,485.8z"/>
	</g>
</g>
<g>
	<g>
		<path d="M138.4,386.6c0,0.1,0,0.1,0,0.2c0,1.4,2.3,1.5,2.3,0c0-0.1,0-0.1,0-0.2C140.7,385.2,138.4,385.1,138.4,386.6
			c0,0.1,0,0.1,0,0.2c0,1.4,2.3,1.5,2.3,0c0-0.1,0-0.1,0-0.2C140.7,385.2,138.4,385.1,138.4,386.6L138.4,386.6z"/>
	</g>
</g>
<g>
	<g>
		<path d="M157.7,368.8c0.1,1.5-0.5,3-0.2,4.5c0.3,1.6,1.5,2.8,2.5,4c2.2,2.8,4.5,5.5,6.7,8.3c0.9,1.1,2.5-0.5,1.6-1.6
			c-2.1-2.5-4.1-5-6.2-7.5c-0.5-0.6-1.1-1.3-1.6-1.9c-0.4-0.5-0.8-1-0.9-1.6c-0.3-1.3,0.4-2.8,0.3-4.1
			C159.8,367.4,157.6,367.4,157.7,368.8L157.7,368.8z"/>
	</g>
</g>
<g>
	<g>
		<path d="M108.1,370.7c0.1,1.6,0,3.1-0.3,4.7c-0.1,0.7-0.3,1.5-0.4,2.2c-0.1,0.6-0.3,1.3-0.7,1.8c-0.4,0.5-1,0.9-1.5,1.3
			c-0.6,0.5-1.1,0.9-1.7,1.4c-1.1,0.9-2.2,1.8-2.2,3.3c0,1.4,2.3,1.5,2.3,0c0-0.5,0.5-0.9,0.9-1.2c0.6-0.5,1.2-1,1.8-1.5
			c1.1-0.9,2.2-1.7,2.8-3.1c0.5-1.3,0.7-2.8,1-4.1c0.3-1.6,0.4-3.2,0.3-4.8C110.2,369.3,108,369.2,108.1,370.7L108.1,370.7z"/>
	</g>
</g>
<g>
	<g>
		<path d="M193.4,480.5c-7.1-1.3-14.2-2.1-21.4-2.5c-3.5-0.2-7.1-0.2-10.6-0.2c-3.4,0.1-7.2-0.1-10.4,1.2c0.5,0.4,0.9,0.7,1.4,1.1
			c-0.3-3.1-0.5-6.1-0.8-9.2c-0.1-1.4-0.5-2.9-0.4-4.3c0-0.2,0.1-0.3,0-0.1c-0.1,0.3,0.3-0.3,0.3-0.3c0.1-0.1,0.3-0.3,0.4-0.4
			c0.3-0.3,0.6-0.5,0.9-0.7c1.2-0.7,1.9-1.9,2.9-2.9c4.6-4.4,11-6.5,17.3-6.9c3.5-0.2,7.1,0,10.4,1.1c3.2,1.1,5.8,3.4,7.6,6.3
			c4.5,7.6,2.8,16.8,1.2,25c0.4-0.3,0.7-0.6,1.1-0.8c-9.1-0.5-18.1-1-27.2-1.5c-2.2-0.1-4.5-0.2-6.7-0.4c-1.7-0.1-4.5,0.2-5.9-0.9
			c-1.3-1.1-1.4-3.3-1.6-4.9c-0.3-2.3-0.5-4.6-0.8-6.9c-2.1-17.9-4.3-35.8-6.4-53.7c-1.2-10.2-2.4-20.3-3.6-30.5
			c-0.3,0.4-0.6,0.7-0.8,1.1c2.5-0.9,5-1.9,7.4-2.8c1.1-0.4,1.1-2.3-0.3-2.2c-5.2,0.2-10.5,0.2-15.7,0.7c-3.8,0.4-7.8,1.4-10,4.7
			c-0.8,1.2,1.1,2.3,1.9,1.1c2.1-3,6.2-3.5,9.5-3.7c4.7-0.3,9.5-0.4,14.2-0.6c-0.1-0.7-0.2-1.5-0.3-2.2c-2.5,0.9-5,1.9-7.4,2.8
			c-0.4,0.2-0.9,0.6-0.8,1.1c2.2,18.7,4.5,37.5,6.7,56.2c1.1,9.3,2.2,18.7,3.3,28c0.3,2.4,0.6,4.8,0.9,7.2c0.2,1.7,0.4,3.4,1.2,4.9
			c0.8,1.6,2.3,2.4,4.1,2.6c2.1,0.3,4.3,0.3,6.4,0.4c10.6,0.6,21.3,1.2,31.9,1.8c0.5,0,1-0.4,1.1-0.8c1.6-7.9,3.1-16.4-0.1-24.2
			c-1.3-3.2-3.4-6-6.2-8c-3.2-2.2-7.1-3-10.9-3.1c-6.9-0.3-14.1,1.2-19.8,5.1c-1.4,1-2.7,2-3.8,3.3c-0.4,0.4-1,1.4-1.3,1.6
			c-0.3,0.2-1.1,0.6-1.5,1c-0.7,0.6-1.5,1.5-1.5,2.5c0,0.6,0.1,1.2,0.2,1.8c0.3,3.9,0.7,7.8,1,11.7c0.1,0.6,0.7,1.4,1.4,1.1
			c3.1-1.3,6.8-1.1,10.1-1.1c3.5-0.1,6.9,0,10.4,0.2c7,0.3,14,1.1,20.8,2.4C194.2,482.9,194.8,480.8,193.4,480.5L193.4,480.5z"/>
	</g>
</g>
<g>
	<g>
		<path d="M88.6,376.2c1.1,0.6,2.2,1.3,3.3,1.9c0.5,0.3,1.3,0.1,1.5-0.4c0.3-0.5,0.1-1.2-0.4-1.5c-1.1-0.6-2.2-1.3-3.3-1.9
			c-0.5-0.3-1.3-0.1-1.5,0.4C87.9,375.2,88.1,375.8,88.6,376.2L88.6,376.2z"/>
	</g>
</g>
<g>
	<g>
		<path d="M139,212.1c-1.9,3.6-4.7,6.7-7.6,9.5c-3.1,3-7,3.5-11.1,3.3c-6.8-0.3-13.9-3.1-17.6-9c-0.8-1.2-2.7-0.1-1.9,1.1
			c3.2,5.1,8.6,8.2,14.4,9.5c3.1,0.7,6.3,0.9,9.4,0.6c3.6-0.4,6.4-1.7,8.9-4.3c2.8-2.9,5.6-5.9,7.5-9.5
			C141.6,212,139.6,210.9,139,212.1L139,212.1z"/>
	</g>
</g>
<g>
	<g>
		<path d="M144.8,211.8c-1.9,4-4.2,7.9-6.9,11.3c-2.7,3.4-6.2,5.4-10.4,6.3c-6.9,1.5-14.2-0.1-20.2-3.8c-3.4-2.1-6.3-4.9-8.5-8.3
			c-0.8-1.2-2.7-0.1-1.9,1.1c4.1,6.5,10.8,11.1,18.3,12.9c7.6,1.8,17,0.9,22.7-4.9c3.7-3.8,6.5-8.7,8.8-13.5
			C147.4,211.6,145.5,210.5,144.8,211.8L144.8,211.8z"/>
	</g>
</g>
<g>
	<g>
		<path d="M101.6,199c0.7,3.4,1.2,6.9,1.3,10.4c0,1.6-0.2,5.1-2.5,5.1c-0.7,0-1.3,0.7-1.1,1.4c0,0.1,0.1,0.3,0.1,0.4
			c0.3-0.5,0.5-0.9,0.8-1.4c-7.5,2.4-15,4.7-22.6,7.1c-3.7,1.2-7.4,2.2-11.1,3.5c-3.2,1.1-5.3,3.3-7.5,5.8
			c-4.9,5.5-9.4,11.3-13.7,17.3c-1,1.4-2,2.8-2.9,4.2c-1.1,1.6-2.2,3.1-2.9,4.8c-1.2,2.9-0.2,5.5,2.5,7.1c1.6,1,3.3,1.7,4.9,2.6
			c1.5,0.9,3,1.9,4.5,3c3,2.3,5.7,4.9,8.1,7.8c0.5,0.6,1.4,0.3,1.8-0.2c4.8-7.4,10.5-14.2,16.9-20.3c0.5-0.4,0.4-1.2,0-1.6
			c-0.1-0.1-0.1-0.1-0.2-0.2c0,0.5,0,1.1,0,1.6c1.4-1.5,2.8-2.9,4.4-4.1c-0.6-0.3-1.1-0.6-1.7-1c-0.1,0.7-0.2,1.4-0.2,2.1
			c0,1.6,0.6,3.4,1,4.9c0.9,3.9,1.7,7.8,2.6,11.6c1.8,7.9,3.5,15.8,5.3,23.6c0.8,3.8,1.6,7.6,1.9,11.4c0.3,3.8,0.1,7.7-0.3,11.6
			c-0.8,7.9-2.4,15.7-3.3,23.6c-1,8.9-1.4,17.9-1.2,26.9c0,1.4,2.2,1.4,2.3,0c0.1-5.6,0.2-11.1,0.3-16.7c0-0.6-0.5-1.2-1.1-1.1
			c-4.9,0.2-9.7,1.9-14.3-0.7c0.1,0.5,0.3,1,0.4,1.5c1.7-2.3,2.5-5,2.5-7.8c0-1.4-0.2-2.7-0.5-4.1c-0.3-1.4-1.2-2.8-1-4.2
			c0.2-2.3,1.9-4.3,2.9-6.4c0.5-1,0.9-2,1.1-3c0.2-1.2-0.1-2.3-0.6-3.5c-0.9-2.1-2.5-3.8-4.2-5.4c-1.9-1.7-3.7-3.4-5.7-5
			c-4.4-3.7-9.1-6.9-13.8-10.3c-5.5-4-10.9-8.1-15.5-13.1c-0.6-0.6-1.7-0.3-1.9,0.5c0,0.1,0,0.2-0.1,0.2c0.6-0.2,1.3-0.3,1.9-0.5
			c-1.8-1.5-4-3.1-5.3-5c-1.4-1.9,0.6-4.4,1.5-6.2c2.1-4.1,4.3-8.2,7.3-11.7c1-1.1-0.6-2.7-1.6-1.6c-3.6,4.1-6.1,8.9-8.5,13.7
			c-1,2.1-2.2,4.3-0.9,6.5c0.6,1.1,1.6,1.9,2.5,2.8c1.1,1,2.2,2,3.3,3c0.6,0.5,1.7,0.4,1.9-0.5c0-0.1,0-0.2,0.1-0.2
			c-0.6,0.2-1.3,0.3-1.9,0.5c7.7,8.3,17.4,14.1,26.3,21c2.1,1.7,4.1,3.4,6.2,5.2c1.6,1.5,3.4,2.7,4.8,4.4c0.7,0.8,1.2,1.7,1.6,2.7
			c0.5,1.3,0.3,2.3-0.2,3.5c-0.9,2.1-2.3,3.9-3,6c-0.4,1.1-0.6,2.2-0.4,3.4c0.2,1.5,1,2.9,1.2,4.5c0.6,3.3,0,6.6-2,9.3
			c-0.4,0.5-0.1,1.3,0.4,1.5c2.4,1.3,4.9,1.9,7.6,1.8c2.6-0.1,5.2-0.7,7.8-0.8c-0.4-0.4-0.8-0.8-1.1-1.1c-0.1,5.6-0.2,11.1-0.3,16.7
			c0.8,0,1.5,0,2.3,0c-0.1-8,0.2-16,0.9-24c0.8-7.9,2.2-15.7,3.2-23.6c1-7.7,0.9-15.1-0.6-22.7c-1.5-7.9-3.4-15.7-5.2-23.5
			c-1-4.4-1.9-8.7-2.9-13.1c-0.3-1.1-0.5-2.3-0.8-3.4c-0.2-1-0.6-2.1-0.7-3.1c-0.1-0.8,0.1-1.6,0.2-2.3c0.1-0.8-1-1.5-1.7-1
			c-1.8,1.3-3.4,2.8-4.9,4.4c-0.4,0.5-0.4,1.1,0,1.6c0.1,0.1,0.1,0.1,0.2,0.2c0-0.5,0-1.1,0-1.6c-6.5,6.3-12.3,13.2-17.2,20.8
			c0.6-0.1,1.2-0.2,1.8-0.2c-3.9-4.8-8.7-8.8-14.1-11.8c-2.3-1.3-6.6-2.4-5.6-5.8c0.5-1.6,1.6-3,2.5-4.3c0.9-1.4,1.9-2.8,2.9-4.2
			c4-5.7,8.3-11.1,12.8-16.4c2.2-2.6,4.2-5.3,7.5-6.5c3.4-1.2,6.8-2.1,10.2-3.2c7.8-2.5,15.7-4.9,23.5-7.4c0.5-0.2,1-0.8,0.8-1.4
			c0-0.1-0.1-0.3-0.1-0.4c-0.4,0.5-0.7,0.9-1.1,1.4c3.1,0,4.4-3.2,4.7-5.8c0.2-1.9-0.1-3.9-0.3-5.7c-0.2-2.3-0.6-4.6-1.1-6.8
			C103.5,197,101.3,197.6,101.6,199L101.6,199z"/>
	</g>
</g>
<g>
	<path class="st2" d="M93.6,158.2c6.3,6,12.5,12,18.8,18c3.6,3.5,7.8,7.2,12.8,7.2c7.2,0.1,12.3-7.2,19.1-9.6l7.3-4.6
		c-6.1,4.2-14,5.3-21.4,4.3c-7.4-1-14.4-3.9-21.1-7.1c-8.3-4-16.3-8.5-23.3-14.4"/>
	<g>
		<path d="M92.8,159c4.8,4.6,9.7,9.3,14.5,13.9c4,3.9,8.1,8.6,13.4,10.7c4.8,1.9,9.4,0.4,13.6-2.3c2-1.3,3.9-2.8,5.9-4.1
			c1-0.6,2-1.2,3.1-1.7c0.6-0.3,1.3-0.5,1.9-0.8c2.4-1.4,4.7-3,7-4.4c-0.4-0.6-0.8-1.3-1.1-1.9c-7.5,5.1-16.9,5.4-25.4,3.3
			c-9.1-2.2-17.8-6.7-25.9-11.3c-4.6-2.6-9-5.6-13.1-9c-1.1-0.9-2.7,0.7-1.6,1.6c7.6,6.4,16.3,11.2,25.2,15.4
			c8.7,4.1,18.1,7.5,27.9,6.7c5-0.4,9.9-1.9,14.1-4.7c1.2-0.8,0.1-2.7-1.1-1.9c-2.1,1.3-4.1,2.6-6.2,3.9c-1.1,0.7-2.2,1.1-3.4,1.7
			c-2,1-3.9,2.4-5.7,3.7c-3.7,2.6-7.8,5.6-12.6,4.5c-5.4-1.2-9.4-6.1-13.2-9.7c-5.2-5-10.4-10-15.6-14.9
			C93.4,156.4,91.8,158,92.8,159L92.8,159z"/>
	</g>
</g>
<g>
	<g>
		<path d="M135.2,151.3c0.3-3.3,0.4-6.9-1.8-9.7c-2-2.7-5.3-3.9-8.6-4.3c-3.4-0.4-7.2-0.2-10.3,1.3c-2.7,1.4-4.6,4-5.3,6.9
			c-0.3,1.4,1.9,2,2.2,0.6c0.6-2.5,2.1-4.6,4.4-5.6c2.5-1.2,5.8-1.2,8.5-1c2.7,0.3,5.6,1.2,7.3,3.5c1.8,2.4,1.5,5.5,1.2,8.3
			C132.8,152.8,135,152.7,135.2,151.3L135.2,151.3z"/>
	</g>
</g>
<ellipse class="st9" cx="89.2" cy="110.9" rx="18.4" ry="17.4"/>
<ellipse class="st9" cx="163.8" cy="132.3" rx="18.4" ry="17.4"/>
<circle class="st10" cx="91.7" cy="107.4" r="9.2"/>
<circle class="st10" cx="166.8" cy="129" r="9.2"/>
<g>
	<g>
		<path d="M25.9,112.4c-9.1,26.6-10.5,55.7-4.1,83.1c1.8,7.7,4.2,15.3,7.2,22.6c0.4,1.1,1.7,1.1,2.2,0c2.4-6,5.6-11.7,9.4-17
			c1.9-2.6,4-5.1,6.2-7.5c2.1-2.3,4.5-5,7.7-5.6c-0.4-0.6-0.8-1.1-1.3-1.7c-3,5.4-3.5,11.9-1.3,17.7c0.3,0.7,1.3,1.2,1.9,0.5
			c4.4-4.9,10.2-8.2,16.6-9.5c-0.5-0.5-0.9-0.9-1.4-1.4c-1.9,5.1-2.3,10.5-1.2,15.8c0.1,0.7,1.1,1.1,1.7,0.7
			c6.7-4.5,14-8.1,21.7-10.7c-0.3-0.7-0.6-1.4-0.9-2.1c-4.6,2.6-7.1,7.9-6.3,13.1c0.1,0.7,1.1,1.1,1.7,0.7
			c5.1-3.7,10.6-6.6,16.6-8.7c1.4-0.5,0.8-2.6-0.6-2.2c-6.1,2.1-11.9,5.1-17.1,8.9c0.6,0.2,1.1,0.4,1.7,0.7
			c-0.6-4.2,1.6-8.5,5.2-10.6c1.1-0.6,0.4-2.5-0.9-2.1c-7.9,2.6-15.4,6.3-22.3,10.9c0.6,0.2,1.1,0.4,1.7,0.7
			c-1.1-4.9-0.6-9.9,1.2-14.6c0.3-0.9-0.6-1.5-1.4-1.4c-6.8,1.4-13,5-17.6,10.1c0.6,0.2,1.3,0.3,1.9,0.5c-2-5.2-1.6-11.1,1.1-16
			c0.5-0.9-0.3-1.8-1.3-1.7c-3.4,0.6-5.8,3.2-8.1,5.6c-2.4,2.5-4.6,5.1-6.6,7.8c-4.2,5.6-7.5,11.7-10.1,18.2c0.7,0,1.4,0,2.2,0
			c-10.6-25.8-13.7-54.5-8.9-82c1.3-7.7,3.3-15.2,5.8-22.6C28.5,111.7,26.3,111.1,25.9,112.4L25.9,112.4z"/>
	</g>
</g>
<g>
	<g>
		<path d="M203.3,161.3c1.4,6.6-2,12.9-4.8,18.6c-2.8,5.7-5.8,11.4-9.5,16.5c0.7,0.2,1.4,0.4,2.1,0.6c0.4-4-0.5-8-2.5-11.4
			c-0.7-1.2-2.7-0.1-1.9,1.1c1.9,3.1,2.6,6.7,2.2,10.3c-0.1,1.2,1.5,1.4,2.1,0.6c4-5.5,7.1-11.7,10.1-17.8
			c2.9-5.9,5.9-12.4,4.4-19.1C205.1,159.3,203,159.9,203.3,161.3L203.3,161.3z"/>
	</g>
</g>
<g>
	<g>
		<path d="M39.6,74.4c5.3-6.9,8.8-15,14.3-21.7c2.7-3.4,6.1-5.9,9.3-8.8c3.7-3.4,7.5-6.7,11.5-9.7c8.1-6,17-11.1,26.6-14.2
			c10.1-3.3,20.5-4.1,30.9-2.5c2.9,0.4,5.8,0.9,8.6,1.5c1.3,0.3,2.6,0.6,3.9,1c1.3,0.5,2.4,1.2,3.7,1.8c2.7,1.4,4.1-1,5.5-2.9
			c1.9-2.5,3.9-5,5.8-7.6c-0.7-0.3-1.4-0.6-2.1-0.9c-0.4,2.9-0.9,5.9-1.3,8.8c-0.2,1.1,1,1.8,1.9,1.1c6-4.8,13.3-7.8,20.9-9
			c-0.3-0.7-0.6-1.4-0.9-2.1c-4.8,3.6-9.7,7.5-12.1,13.2c-0.5,1.1,0.8,2.4,1.8,1.4c1.1-1.2,2.2-2.4,3.2-3.6
			c-0.3,0.1-0.5,0.2-0.8,0.3c15.2,1,27.8,11.4,36.2,23.5c4.5,6.5,8,13.6,11.2,20.9c3.4,7.8,6.5,15.7,7.4,24.2
			c0.9,9.1-0.5,18.4-3.9,26.9c0.7-0.1,1.4-0.2,2.1-0.3c-0.2-0.4-0.5-0.9-0.7-1.3c-0.5-0.9-2.2-0.6-2.1,0.6
			c0.7,5.2-2.6,10.2-4.9,14.6c-1.1,2.1-2.3,4.3-3.9,6.2c-0.5,0.5-0.9,1.1-1.5,1.5c-0.1,0.1-0.6,0.4-0.6,0.5c0,0.1,0.6,0.7,0.8,0.7
			c0,0,0.1-0.7,0.1-0.7c0.2-1-1.1-2-1.9-1.1c-0.3,0.4-0.8,0.8-1,1.2c-0.5,1-0.6,2.4-0.9,3.5c-0.5,2.2-1.1,4.5-1.6,6.7
			c-1.2,4.5-2.5,9.1-4.1,13.5c-3.2,8.7-7.6,17.1-14,23.8c-3.4,3.5-7.2,6.5-11.6,8.7c-4.3,2.2-8.9,3.5-13.7,4.1
			c-9.8,1.4-19.8,0.3-29.6-1.1c-20.5-2.8-41.2-6-59.2-16.8c-4.7-2.8-9-6.1-13.2-9.5c-4.5-3.6-8.8-7.4-12.7-11.6
			c-3.6-3.8-6.8-7.9-8.3-13c-1.4-4.7-1.3-9.7-0.4-14.4c1.1-5.8,3-11.5,4.8-17c1.8-5.7,3.8-11.3,5.6-17c3.5-10.7,6.1-21.9,11.2-32.1
			c1.2-2.5,2.6-4.8,4.2-7c-0.2,0.2-0.4,0.3-0.7,0.5c0.5-0.1,0.9-0.2,1.4-0.3c-0.5-0.4-0.9-0.7-1.4-1.1c0.2,6.2,1.8,12.2,4.7,17.6
			c0.4,0.8,1.9,0.7,2.1-0.3c1.6-9.3,10.2-14.5,17.8-18.7c-0.6-0.4-1.1-0.8-1.7-1.3C82.5,63.7,83,73,83.6,82c0,0.8,0.9,1.5,1.7,1
			c9.9-7,22.1-10.2,34.2-8.9c-0.2-0.7-0.4-1.4-0.6-2.1c-6.1,3.8-11.2,9-15,15.2c-0.5,0.9,0.3,1.9,1.3,1.7
			c10.7-2.4,21.6-3.5,32.5-3.3c-0.2-0.7-0.4-1.4-0.6-2.1c-6.7,3.4-11.6,10-12.9,17.5c-0.2,0.9,0.7,1.8,1.7,1.3
			c16.2-8.9,35.1-10,53.2-11.1c-0.4-0.3-0.7-0.6-1.1-0.8c0.1,0.4,0.1,0.8,0.3,1.2c0.2,0.6,0.7,1,1.1,1.5c1.1,1.3,2.2,2.7,3.1,4.1
			c2,3,3.6,6.3,4.9,9.6c2.6,6.5,4.2,13.3,6.1,20c0.4,1.3,2.1,0.9,2.2-0.3c0.1-1.3,0.1-4-1.1-4.9c-0.9-0.7-1.9,0.1-1.9,1.1
			c-0.1,1.3,0.5,2.8,0.8,4.1c0.3,1.1,1.9,1,2.2,0c1.8-6.3,8.9-8.6,13.5-12.4c-0.5-0.5-1.1-1.1-1.6-1.6c-0.6,0.5-0.5,1-0.4,1.7
			c0.2,1.2,0.3,2.4,0.5,3.6c0.3,2.4,0.5,4.7,0.7,7.1c0.4,4.6,0.6,9.3,0.6,13.9c0,1.4,2.3,1.5,2.3,0c0-8.6-0.7-17.2-1.9-25.7
			c-0.1,0.4-0.2,0.7-0.3,1.1c0,0,0.1-0.1,0.1-0.1c1.1-1-0.5-2.5-1.6-1.6c-5,4.2-12.1,6.5-14.1,13.4c0.7,0,1.4,0,2.2,0
			c-0.2-0.9-0.4-1.8-0.6-2.7c0-0.2,0-0.4-0.1-0.6c-0.1-0.3,0.1-0.1-0.3,0.4c-0.3,0.1-0.5,0.2-0.8,0.3c-0.5,0-0.9-0.4-0.9-0.5
			c0,0.1,0.1,0.3,0.1,0.4c0.1,0.3,0.2,0.6,0.2,0.9c0.1,0.7,0.2,1.4,0.1,2.2c0.7-0.1,1.5-0.2,2.2-0.3c-1.9-6.8-3.5-13.6-6.2-20.2
			c-1.3-3.2-2.8-6.4-4.6-9.3c-0.9-1.5-2-2.9-3.1-4.3c-0.2-0.3-0.5-0.6-0.8-0.9c-0.2-0.2-0.3-0.4-0.5-0.6c0,0.2,0,0.2,0,0
			c-0.2-0.3-0.2-0.8-0.3-1.2c-0.1-0.5-0.6-0.9-1.1-0.8c-14.4,0.8-29.2,1.7-43,6.4c-3.9,1.3-7.7,3-11.4,5c0.6,0.4,1.1,0.8,1.7,1.3
			c1.2-6.9,5.6-12.9,11.9-16.1c1-0.5,0.5-2.1-0.6-2.1c-11.1-0.2-22.2,0.9-33.1,3.4c0.4,0.6,0.8,1.1,1.3,1.7
			c3.5-5.8,8.4-10.7,14.2-14.4c1-0.6,0.5-2-0.6-2.1c-12.4-1.3-25.1,2-35.3,9.2c0.6,0.3,1.1,0.6,1.7,1c-0.6-8.8-1-17.8,2.4-26.1
			c0.4-1-0.9-1.7-1.7-1.3c-8,4.6-17.1,10.2-18.8,20.1c0.7-0.1,1.4-0.2,2.1-0.3c-2.7-5.1-4.2-10.7-4.4-16.5c0-0.8-0.7-1.2-1.4-1.1
			c-0.5,0.1-1.2,0.1-1.7,0.4c-0.4,0.2-0.7,0.7-0.9,1.1c-0.5,0.7-1,1.5-1.5,2.2c-1.5,2.4-2.7,5-3.9,7.5C53.8,73.5,52,79,50.2,84.6
			c-3.6,11.8-7.7,23.4-11.3,35.2c-3.1,10.2-5.9,21-1.1,31.2c2.4,5,6.4,9.2,10.4,13c4.2,4.1,8.7,7.8,13.3,11.4
			c8.8,6.8,18.3,12,28.7,15.6c10.4,3.6,21.2,5.7,32.1,7.2c19.4,2.7,41.8,7.1,59.1-5.1c16.2-11.6,22.7-31.4,27.1-49.9
			c0.3-1.1,0.5-2.2,0.8-3.2c0,0.1,0.2-1,0.1-0.7c-0.1,0.2,0.1-0.2,0.2-0.2c0.2-0.2,0.4-0.5,0.6-0.7c-0.6-0.4-1.3-0.7-1.9-1.1
			c-0.2,0.9-0.4,2.2,0.5,2.7c0.8,0.5,1.6,0.1,2.3-0.4c1.8-1.4,3.2-3.4,4.4-5.3c1.9-3,3.5-6.2,5-9.4c1.4-3,2.6-6.3,2.2-9.7
			c-0.7,0.2-1.4,0.4-2.1,0.6c0.2,0.4,0.5,0.9,0.7,1.3c0.5,0.9,1.7,0.6,2.1-0.3c3.5-8.7,4.8-18.2,3.9-27.5
			c-0.9-9.7-4.6-18.6-8.6-27.4c-7.2-16-17.2-32-33.7-39.6c-4.2-1.9-8.6-3.2-13.1-3.7c-0.8-0.1-1.7-0.3-2.4,0.3
			c-0.4,0.3-0.7,0.7-1,1.1c-0.7,0.8-1.5,1.6-2.2,2.4c0.6,0.5,1.2,0.9,1.8,1.4c2.3-5.3,6.9-8.9,11.3-12.4c1-0.8,0.4-2.3-0.9-2.1
			c-8,1.2-15.5,4.5-21.9,9.6c0.6,0.4,1.3,0.7,1.9,1.1c0.4-2.9,0.9-5.9,1.3-8.8c0.2-1.3-1.3-1.9-2.1-0.9c-1.7,2.2-3.4,4.4-5,6.6
			c-0.4,0.5-0.8,1-1.2,1.6c-0.4,0.5-0.8,1.4-1.4,1.6c-0.5,0.1-1.1-0.4-1.6-0.7c-0.5-0.3-1.1-0.6-1.7-0.8c-4.5-2-9.8-2.5-14.6-3.2
			c-10.3-1.5-20.6-0.8-30.5,2.3c-9.6,3-18.5,7.8-26.6,13.7c-4,2.9-7.8,6-11.4,9.3c-1.6,1.4-3.2,3.2-4.7,4.3
			c-1.7,1.2-3.3,2.7-4.8,4.3c-6.7,7.2-10.5,16.4-16.4,24.2C36.8,74.4,38.7,75.6,39.6,74.4L39.6,74.4z"/>
	</g>
</g>
<image style="display:none;overflow:visible;" width="224" height="148" xlink:href="E13F0837.jpg"  transform="matrix(1.0821 0.2611 -0.2611 1.0821 17.4827 -73.9989)">
</image>
<g>
	<g>
		<path class="st11" d="M107.8,458.2c-3.1,0.1-6.2,1.1-8.7,2.8c-1.3,0.9-2.4,1.9-3.4,3.2c-0.5,0.6-0.9,1.2-1.3,1.9
			c-0.2,0.3-0.3,0.7-0.5,1c-0.1,0.1-0.2,0.3-0.2,0.5c-0.1,0.3-0.3,0,0.4-0.1c-0.8,0.1-1.5,0.6-1.5,1.5c0,0.7,0.7,1.6,1.5,1.5
			c1.9-0.2,2.3-1.9,3.2-3.3c0.8-1.2,1.7-2.3,2.8-3.2c2.2-1.8,4.9-2.8,7.7-2.8C109.7,461.2,109.7,458.2,107.8,458.2L107.8,458.2z"/>
	</g>
</g>
<g>
	<g>
		<path class="st11" d="M172.3,456.3c-3.1,0.1-6.2,1.1-8.7,2.8c-1.3,0.9-2.4,1.9-3.4,3.2c-0.5,0.6-0.9,1.2-1.3,1.9
			c-0.2,0.3-0.3,0.7-0.5,1c-0.1,0.1-0.2,0.3-0.2,0.5c-0.1,0.3-0.3,0,0.4-0.1c-0.8,0.1-1.5,0.6-1.5,1.5c0,0.7,0.7,1.6,1.5,1.5
			c1.9-0.2,2.3-1.9,3.2-3.3c0.8-1.2,1.7-2.3,2.8-3.2c2.2-1.8,4.9-2.8,7.7-2.8C174.2,459.2,174.3,456.2,172.3,456.3L172.3,456.3z"/>
	</g>
</g>
<path class="st12" d="M61.8,185.3c-4.7-7.4-10.2-14.1-16.5-20.1c-2.4-2.3-4.9-4.6-7.1-7.1c-3.3-4.8-6-10-7.4-15.6
	c-0.4-2.2-0.6-4.5-0.8-6.8c0.7-4.8,2.1-9.5,4.4-13.9c0.7-1.4-1.2-3.2-2.4-1.8c-0.1,0.1-0.2,0.2-0.2,0.3c0,0,0,0,0,0c0,0,0,0,0,0
	c-5.5,7.2-8.5,16.3-7.7,25.4c0.1,0.6,0.1,1.2,0.2,1.7c0,1.2,0.1,2.5,0.3,3.7c-0.1,2.3-0.1,4.6-0.1,7c-0.2,0.3-0.3,0.7-0.2,1.1
	c0.1,0.4,0.2,0.9,0.2,1.3c0.2,6.3,0.9,12.6,2.2,18.8c0.9,4.7,2.2,9.4,3.7,14c0.5,1.4,2.4,1.4,2.9,0c1.6-4.9,3.7-11.2,9-13.3
	c6.5-2.6,12.9,3.1,17.2,7.2C60.6,188.3,62.7,186.8,61.8,185.3z M52.3,178c0.1-0.1,0.3-0.2,0.4-0.3c0.2,0.3,0.4,0.6,0.7,0.9
	C53,178.4,52.7,178.2,52.3,178z"/>
<g>
	<g>
		<path d="M174.7,219.8c-1.7-2.3-4.3-3.2-6.9-4.3c-3.3-1.3-6.4-2.9-9.6-4.5c-0.4-0.2-1-0.2-1.4,0.2c0,0-0.1,0.1-0.1,0.1
			c0.4-0.1,0.7-0.2,1.1-0.3c-3.2-0.9-6.5-1.4-9.8-1.4c-1.7,0-3.3,0-5,0.1c-1.6,0.1-3.2,0.3-4.7,0.2c-1.9-0.2-2.3-1.4-2.4-3.1
			c-0.1-1.9,0.1-3.7-0.2-5.5c-0.3-1.4-2.4-0.8-2.2,0.6c0.6,3.3-1.2,8.5,3.1,10c1.3,0.4,2.7,0.3,4.1,0.2c1.8-0.1,3.7-0.2,5.5-0.2
			c3.7,0,7.4,0.3,11,1.4c0.4,0.1,0.8,0,1.1-0.3c0,0,0.1-0.1,0.1-0.1c-0.5,0.1-0.9,0.1-1.4,0.2c2.8,1.4,5.7,2.8,8.6,4.1
			c2.4,1,5.4,1.7,7.1,3.8C173.7,222.1,175.6,221,174.7,219.8L174.7,219.8z"/>
	</g>
</g>
<g>
	<g>
		<path d="M173.8,235.7c-0.8,3.4-1.5,6.8-2.3,10.2c0.3-0.3,0.5-0.5,0.8-0.8c-0.1,0-0.2,0-0.3,0c-0.4,0-0.7,0.4-0.8,0.8
			c-3,15.2-1.3,30.6,0.7,45.8c0.4,3.3,0.1,6.8,0.1,10.1c0,1.7,0.3,3.5,0.5,5.2c0.2,2.1,0.5,4.2,0.7,6.4c0.8,7.8,1.6,15.7,2.6,23.5
			c0.6,4.4,1.2,8.7,2,13c0.5,2.9,1.9,5.6,4.7,6.7c1.3,0.5,1.9-1.6,0.6-2.2c-2.6-1-3.1-4.7-3.5-7.1c-0.7-3.8-1.2-7.6-1.7-11.5
			c-1-7.5-1.7-15-2.5-22.5c-0.2-1.8-0.4-3.6-0.6-5.4c-0.2-1.9-0.6-3.9-0.6-5.8c-0.1-3.2,0.2-6.4,0-9.6c-0.2-3.4-0.9-6.8-1.3-10.2
			c-0.4-3.6-0.8-7.3-1-10.9c-0.5-8.4-0.3-16.8,1.3-25c-0.3,0.3-0.5,0.5-0.8,0.8c0.1,0,0.2,0,0.3,0c0.4-0.1,0.7-0.4,0.8-0.8
			c0.8-3.4,1.5-6.8,2.3-10.2C176.3,234.9,174.1,234.3,173.8,235.7L173.8,235.7z"/>
	</g>
</g>
<g class="hand">
	<g>
		<g>
			<path d="M219.8,215.8c0.1,1.4,0.1,2.8,0.2,4.1c0,0.6,0.5,1.2,1.1,1.1c0.6,0,1.2-0.5,1.1-1.1c-0.1-1.4-0.1-2.8-0.2-4.1
				c0-0.6-0.5-1.2-1.1-1.1C220.4,214.7,219.8,215.1,219.8,215.8L219.8,215.8z"/>
		</g>
	</g>
	<g>
		<path class="st8" d="M219.5,216.3c-0.8-0.2-1.6,0.2-1.8,1c-0.1,0.3-0.2,0.6-0.3,0.9c-0.6,0.2-1.1,0.4-1.7,0.6
			c-0.6,0.2-1,0.6-1.1,1.2c-0.1,0.5,0.2,1.2,0.7,1.5c0.2,0.1,0.3,0.2,0.5,0.3c0,0,0,0,0,0c0,0,0.1,0.1,0.1,0.1
			c0.1,0.1,0.2,0.2,0.3,0.3c0,0,0,0,0,0c0,0.1,0.1,0.1,0.1,0.2c0,0.1,0.1,0.1,0.1,0.2c0,0.1,0.1,0.3,0.1,0.4c0,0,0,0.1,0,0.1
			c0,0,0,0,0,0c0,0.2,0,0.3,0,0.5c0,0.8,0.7,1.5,1.5,1.5c0.9,0,1.4-0.7,1.5-1.5c0-0.5,0-1,0.1-1.5c0-0.3,0-0.5,0.1-0.8
			c0,0,0-0.1,0-0.1c0-0.1,0-0.3,0.1-0.4c0.2-1,0.4-2,0.7-2.9C220.8,217.4,220.3,216.5,219.5,216.3z"/>
		<path class="st6" d="M215.5,224.5L215.5,224.5c0-0.1,0-0.2,0-0.2c-0.2-0.7-0.6-1.2-1.1-1.5c-0.2-0.3-0.4-0.6-0.6-0.9
			c0,0,0,0,0-0.1l-1.7-3.3c-0.2-0.4-0.6-0.5-0.9-0.5c-0.4-0.6-0.7-1.2-1.1-1.8c0.5-0.4,0.8-1,0.9-1.8c0.1-2.2-1.9-3.6-3.7-3.2
			c-0.1-0.1-0.2-0.3-0.2-0.4c-0.1-0.1-0.2-0.2-0.3-0.3c0,0,0,0,0-0.1c0,0,0,0,0,0c0,0,0,0,0,0c-1-2.5-2.3-4.8-3.9-7
			c-0.2-0.9-0.4-1.8-0.4-2.8c0-0.6-0.7-1.4-1.4-1.1c-4.5,1.8-9,3.8-13.4,5.7c-0.2,0.1-0.5,0.2-0.7,0.3c-2.4,0.7-4.9,1.4-7.3,2
			c-2,0.3-3.9,0.7-5.8,1.3c-0.6,0.1-1.2,0.2-1.9,0.4c-2.1,0.2-4.1,0.6-6.1,1.2c-0.3,0.1-0.5,0.3-0.6,0.5c-1.1,0-2.3,0.4-3.2,1.2
			c-0.1,0.1-0.1,0.1-0.2,0.2c-0.2,0-0.4-0.1-0.6-0.2c-1-0.3-1.7,0.8-1.3,1.7c1.6,3.1,3.2,6.3,4.8,9.4c0.1,0.2,0.2,0.3,0.4,0.4
			c0.5,1,0.9,2.1,1.4,3.1c-0.1,0.3-0.1,0.6,0.1,0.9c2.3,4.7,4.1,9.6,5.5,14.7c0.4,1.3,2.1,0.9,2.2-0.3c0-0.1,0-0.3,0-0.4
			c0.7,0.2,1.5-0.1,1.4-1c0-0.3,0-0.6,0-0.9c0.2,0,0.3-0.1,0.4-0.2c0.2,0,0.3,0,0.5-0.1c1.4-0.8,2.6-1.9,3.4-3.3
			c0.4,0,0.8-0.3,1-0.7c0,0,0.1,0,0.1-0.1c0.4-0.3,0.7-0.5,0.9-0.9c0.1,0,0.2,0,0.3,0.1c0.2,0.6,0.8,1,1.4,0.8
			c1.7-0.7,3.5-1.2,5.3-1.7c0.3,0.3,0.6,0.4,1.1,0.3c0.1,0,0.2-0.1,0.3-0.1c0,0,0,0,0,0c0,0,0.1,0,0.1-0.1c0.2-0.1,0.4-0.2,0.6-0.3
			c0.6-0.3,1.2-0.5,1.8-0.6c0.5-0.1,0.7-0.4,0.8-0.7c1.3-0.1,2.5-0.4,3.8-0.8c0.3-0.1,0.4-0.2,0.6-0.4c0.2,0,0.4-0.1,0.5-0.3
			c0.8-0.1,1.5-0.3,2.3-0.7c0,0,0.1,0,0.1-0.1c0.7-0.1,1.4-0.2,2.1-0.4c0.2,0.2,0.5,0.2,0.9,0.2c1.4-0.4,2.7-0.9,4-1.4
			c0.1,0,0.2,0,0.4,0c1.9-0.6,3.8-1.3,5.7-2.2C214.9,226.5,216.2,225.6,215.5,224.5z"/>
		<g>
			<g>
				<path d="M201.9,201.5c4.2,8.6,9.1,16.9,14.6,24.7c0.4,0.5,0.9,0.7,1.5,0.4c2.8-1.3,4.5-4.1,4.6-7.2c0-1.4-2.2-1.4-2.3,0
					c0,2.3-1.4,4.3-3.5,5.2c0.5,0.1,1,0.3,1.5,0.4c-5.6-7.8-10.5-16.1-14.6-24.7C203.2,199,201.3,200.2,201.9,201.5L201.9,201.5z"/>
			</g>
		</g>
		<g>
			<g>
				<path d="M266.4,173.5c-13.1,12.5-26.7,24.4-40.8,35.8c-4,3.3-8.1,6.5-12.2,9.6c-1.1,0.9,0,2.8,1.1,1.9
					c14.5-11.1,28.5-22.8,42-35.1c3.9-3.5,7.7-7.1,11.4-10.7C269,174.1,267.4,172.5,266.4,173.5L266.4,173.5z"/>
			</g>
		</g>
		<g>
			<g>
				<path d="M261.4,171.2c2.7,1.2,5.4,1.5,8.3,1.1c2.7-0.3,5.6-0.7,8.1-1.8c2.5-1.1,4.6-3,6.6-4.7c2.3-1.9,4.6-3.8,6.9-5.8
					c0.8-0.7,1.5-1.4,2.4-1.8c1.2-0.5,2.5-0.8,3.7-1.3c2.9-1,5.7-2.1,8.6-3.2c2.1-0.8,5-1.5,6.2-3.6c1-1.8,0.4-4.1-1.7-4.8
					c-1.1-0.3-2.3-0.1-3.4,0.1c-1.6,0.4-3.2,0.8-4.8,1.2c-3.3,0.8-6.7,1.5-10.1,1.8c0,0.8,0,1.5,0,2.3c0.2,0,0.3,0,0.5,0
					c1.5-0.1,1.4-2.1,0-2.3c-0.1,0-0.1,0-0.2,0c0.3,0.1,0.5,0.2,0.8,0.3c0,0,0.1,0.1,0.1,0.1c0,0.3-0.1,0.6-0.1,0.9
					c0.4-0.8,1.6-1.5,2.2-2.1c0.8-0.7,1.6-1.4,2.3-2.1c1.4-1.3,2.9-2.6,4.3-3.9c1.4-1.3,3.1-2.5,4.2-3.9c0.8-1.1,1.1-2.5,0.2-3.7
					c-2.3-2.9-6.2-0.2-8.4,1.3c-3.4,2.4-6.9,4.9-10.3,7.3c0.4,0,0.8,0,1.1,0c-0.3-0.1-0.6-0.3-0.9-0.4c-0.5-0.2-1-0.2-1.4,0.2
					c0.4,0,0.7-0.2,0.9-0.6c0.2-0.3,0.4-0.6,0.7-0.8c0.3-0.4,0.6-0.8,0.9-1.1c0.7-0.8,1.3-1.7,1.9-2.5c1.4-1.8,2.7-3.6,4.1-5.4
					c1.7-2.3,6-6.9,2.4-9.5c-3.4-2.5-6.7,2.7-8.5,4.8c-1.5,1.8-3,3.6-4.5,5.3c-1.2,1.4-2.6,3.4-4.6,3.5c0.3,0.2,0.6,0.4,1,0.6
					c-0.1-0.1-0.1-0.2-0.2-0.3c0,0.3,0.1,0.6,0.1,0.9c1.6-4,3.2-8,4.7-12.1c0.7-1.7,1.9-3.7,1.5-5.6c-0.3-1.5-1.5-2.6-3-2.5
					c-1.7,0.1-2.7,1.5-3.4,2.8c-1,1.9-2,3.8-2.9,5.7c-1,1.9-1.9,3.9-2.8,5.9c-0.7,1.7-1.4,3.4-2.3,5c-2.1,3.4-6.2,4.6-9,7.3
					c0.3-0.1,0.5-0.2,0.8-0.3c-0.6,0.1-1.3,0.2-1.9,0.3c0.4,0.4,0.8,0.8,1.1,1.1c0-2.4,0.1-4.8,0.1-7.2c0-1.9,0.2-3.8-0.5-5.6
					c-0.5-1.2-1.4-2.3-2.8-2.3c-1.6,0-2.6,1.4-2.9,2.9c-0.5,2.3-0.7,4.7-1.1,7c-0.3,2.3-0.7,4.6-1,6.9c-0.7,4.9-1.4,9.7-2,14.6
					c-0.2,1.4,2.1,1.4,2.3,0c1-7.8,2.1-15.6,3.3-23.4c0.2-1.6,0.2-3.5,0.8-5c0.7-1.7,1.4,0.3,1.6,1.1c0.3,1.7,0,3.5,0,5.2
					c0,1.9-0.1,3.8-0.1,5.7c0,0.6,0.5,1.2,1.1,1.1c0.7-0.1,1.4-0.1,2.1-0.3c0.7-0.2,1.1-0.8,1.7-1.2c0.7-0.5,1.4-1,2.1-1.4
					c2.8-1.8,5.4-3.5,6.9-6.5c1.7-3.4,3.1-7,4.8-10.5c0.9-1.8,1.8-3.7,2.8-5.4c0.3-0.6,1.4-2.1,2-1c0.4,0.8-0.3,2.1-0.6,2.8
					c-1.5,3.8-3,7.6-4.5,11.4c-0.4,1.1-1.8,3-0.6,4.1c1,0.9,3-0.1,3.9-0.7c1.4-1,2.5-2.3,3.5-3.6c1.3-1.6,2.7-3.2,4-4.8
					c0.7-0.8,1.4-1.7,2.1-2.5c0.6-0.7,1.2-1.5,1.9-2c0.7-0.4,1.6-0.5,1.9,0.4c0.3,0.9-0.3,1.8-0.8,2.6c-2.6,3.7-5.5,7.3-8.2,10.9
					c-1,1.3-3,3.1-2.5,4.9c0.4,1.4,2.1,1.9,3.2,0.9c-0.5,0.1-0.9,0.1-1.4,0.2c0.3,0.1,0.6,0.3,0.9,0.4c0.3,0.2,0.8,0.2,1.1,0
					c3.1-2.2,6.2-4.4,9.3-6.6c1.4-1,2.9-2.2,4.6-2.8c0.5-0.2,1.7-0.4,2,0.4c0.2,0.7-1,1.5-1.4,1.9c-2.8,2.5-5.5,5-8.3,7.5
					c-0.7,0.6-1.3,1.2-2,1.8c-0.5,0.5-1.3,1-1.7,1.6c-0.7,1.1,0,2.3,1.2,2.4c0-0.8,0-1.5,0-2.3c-0.2,0-0.3,0-0.5,0
					c-1.4,0.1-1.5,2.3,0,2.3c5-0.3,9.8-1.6,14.6-2.8c0.9-0.2,2.1-0.7,3-0.4c1.3,0.4,0.4,1.9-0.4,2.4c-0.9,0.6-2.1,1-3.1,1.4
					c-1.3,0.5-2.5,1-3.8,1.5c-2.4,0.9-4.8,1.8-7.2,2.6c-1.6,0.5-3,0.9-4.2,2c-3.9,3.4-7.8,6.9-12,9.9c-2.3,1.6-4.8,2.2-7.5,2.6
					c-3.1,0.5-6.1,0.8-9.1-0.5C261.2,168.7,260,170.6,261.4,171.2L261.4,171.2z"/>
			</g>
		</g>
		<path class="st6" d="M174.5,238.1c0,0-0.1-0.1-0.1-0.1c0.3-1-0.1-1.9-0.5-2.9c-0.4-1.1-0.8-2.2-1.3-3.3c-0.9-2.3-2-4.5-3.1-6.7
			c-1-1.9-2-3.7-3.2-5.6c-0.5,0.4-1.1,0.8-1.8,1c-3.2,1.3-6.3,2.4-9.7,2.9c1,4.1,2,8.3,3.2,12.3c0.5,1.6,1.1,3,1.8,4.5
			c1.2,3.9,2.3,7.8,3.5,11.7c0.5,1.8,3.4,1.1,2.9-0.8c0-0.1-0.1-0.2-0.1-0.4c0.1-0.1,0.1-0.3,0.1-0.4c1.1,0.2,1.9-0.8,1.7-1.9
			c-0.1-0.3-0.1-0.7-0.2-1c0.6-0.2,1.3-0.5,1.7-1c0.5-0.6,0.7-1.2,1-1.9c0-0.1,0.1-0.2,0.1-0.4c0-0.1,0.1-0.1,0.1-0.2
			c0,0,0.1-0.1,0.1-0.1c0,0,0,0,0.1,0c0,0,0,0,0,0c0,0,0,0,0,0c0.1,0,0.2-0.1,0.3-0.1c0.3-0.1,0.5-0.2,0.7-0.3
			c0.4-0.2,0.7-0.6,0.9-0.9c0.2-0.4,0.4-0.8,0.5-1.2c0.2-0.1,0.3-0.2,0.5-0.3c0.1,0,0.1,0,0.2-0.1c0.1,0,0.1-0.1,0.2-0.2l0,0
			c0.5-0.3,0.7-0.7,0.7-1.1c0.1-0.2,0.1-0.4,0.1-0.6C174.9,238.7,174.8,238.4,174.5,238.1z"/>
		<g>
			<g>
				<path d="M158.8,213.3c4-1.3,8.1-2.6,12.2-3.6c1.5-0.4,3-0.4,4.4-0.7c1.7-0.3,3.3-0.6,5-1c6.8-1.6,13.4-4.1,19.7-7.1
					c12.6-6.1,24-14.5,35.2-22.9c6.3-4.7,12.6-9.5,19.1-13.9c1.2-0.8,0.1-2.8-1.1-1.9c-11.5,7.8-22.3,16.6-33.7,24.5
					c-11.5,7.9-23.7,15-37.3,18.6c-1.9,0.5-3.9,1-5.9,1.3c-1.6,0.3-3.2,0.4-4.7,0.7c-4.6,0.9-9.1,2.5-13.6,3.9
					C156.8,211.6,157.4,213.8,158.8,213.3L158.8,213.3z"/>
			</g>
		</g>
		<g>
			<g>
				<path d="M165.2,253.2c2.5-3.1,5.2-6,8-8.8c1.5-1.4,2.9-2.8,4.5-4.1c1.5-1.3,3-2.6,4.7-3.6c0.8-0.4,1.7-0.8,2.7-0.8
					c0.6,0,1.1,0,1.7-0.1c2-0.4,4-0.8,6-1.2c4-1,8-2.2,12-3.5c4.5-1.5,9-3.1,13.6-4.6c1.4-0.4,0.8-2.6-0.6-2.2
					c-8.2,2.7-16.3,5.8-24.6,7.9c-2,0.5-4.1,1-6.2,1.3c-1.5,0.3-3.1,0.2-4.6,0.8c-3.5,1.4-6.5,4.5-9.3,7.1
					c-3.4,3.2-6.6,6.6-9.5,10.2C162.8,252.7,164.3,254.3,165.2,253.2L165.2,253.2z"/>
			</g>
		</g>
	</g>
</g>
</svg>
