<?xml version="1.0" encoding="utf-8"?>
<!-- Generator: Adobe Illustrator 24.0.1, SVG Export Plug-In . SVG Version: 6.00 Build 0)  -->
<svg version="1.1" id="Layer_1" xmlns="http://www.w3.org/2000/svg" xmlns:xlink="http://www.w3.org/1999/xlink" width="100%" height="100%"
	 viewBox="0 0 3001.5 294.9" preserveAspectRatio="none" >
<style type="text/css">
	.color{fill:#048181;}
</style>
<title>Asset 2</title>
<g>
	<path d="M0.9,5.1v270c91.3,21.4,185.8,22.2,280.1,14c5-1.1,10-1.1,15-2.2c8-0.1,17-1.2,25.1-1.3c59.2-6.8,116.4-12.5,175.6-19.3
		c166.5-21.2,328.1-38.3,495.1-28.5c29.2,1.6,58.4,5.2,88.5,6.9c22.1,0.7,43.3,3.4,65.4,3.1c15.1,0.8,31.2,2.6,46.3,3.4
		c71.4,4.1,142.8,5.1,214-2.8c63.2-5.8,124.4-13.6,187.7-18.5c22.1-1.3,43.2-1.6,65.3,1.2c22.1,1.7,42.2,1.5,64.4,5.2
		c8,0.9,15.1,1.8,23.1,1.7c3,0,6,1.9,9,1.9c5-0.1,9.1,0.9,14.1,1.8c20.1,2.7,39.2,2.5,59.4,5.2c69.5,9.1,137.8,9.2,207,2.3l10-0.1
		c3-1,6-2.1,9-2.1l12-0.1c38.1-5.5,75.3-8,112.4-9.5c39.5-2.7,79.1-2.9,118.6-0.5c19.1,1.8,38.2,3.5,58.3,4.2
		c12.1,0.8,23.2,2.7,35.2,4.5c74.5,8,145,18.1,219.4,27.1c98.6,10.7,195.1,10.5,293.4,1.2l33.1-3.4c3,0,7-2.1,10-2.1
		c18-1.2,35.1-4.5,53.3-7.5V5.1H0.9z"/>
	<polygon points="-3.8,5.1 0.9,5.1 0.9,-5.5 	"/>
</g>
<g>
	<path class="color" d="M0.9-0.2v270c91.3,21.4,185.8,22.2,280.2,14c5-1.1,10-1.1,15-2.2c8-0.1,17-1.2,25.1-1.3
		c59.2-6.8,116.4-12.5,175.6-19.3C663.4,239.7,825,222.6,992,232.4c29.2,1.6,58.4,5.2,88.5,6.9c22.1,0.7,43.3,3.4,65.4,3.1
		c15.1,0.8,31.2,2.6,46.3,3.4c71.4,4.1,142.8,5.1,214-2.8c63.3-5.8,124.5-13.6,187.7-18.5c22.1-1.3,43.2-1.6,65.3,1.2
		c22.1,1.7,42.2,1.5,64.4,5.2c8,0.9,15.1,1.8,23.1,1.7c3,0,6,1.9,9,1.9c5-0.1,9.1,0.9,14.1,1.8c20.1,2.7,39.2,2.5,59.4,5.2
		c69.5,9.1,137.8,9.2,207.1,2.3l10-0.1c3-1,6-2.1,9-2.1l12-0.1c38.1-5.5,75.3-8,112.5-9.5c39.5-2.7,79.1-2.9,118.6-0.5
		c19.1,1.8,38.2,3.5,58.4,4.2c12.1,0.8,23.2,2.7,35.2,4.5c74.5,8,145,18.1,219.5,27.1c98.6,10.7,195.1,10.5,293.5,1.2l33.1-3.4
		c3,0,7-2.1,10-2.1c18-1.2,35.1-4.5,53.3-7.5V-0.2H0.9z"/>
</g>
</svg>
