<?xml version="1.0" encoding="utf-8"?>
<!-- Generator: Adobe Illustrator 24.0.1, SVG Export Plug-In . SVG Version: 6.00 Build 0)  -->
<svg version="1.1" id="Layer_1" xmlns="http://www.w3.org/2000/svg" xmlns:xlink="http://www.w3.org/1999/xlink" x="0px" y="0px"
	 viewBox="0 0 1000 1000" style="enable-background:new 0 0 1000 1000;" xml:space="preserve">
<style type="text/css">
	.st0{fill:#282828}
</style>
<g>
	<g transform="translate(0.000000,512.000000) scale(0.100000,-0.100000)">
		<path d="M2757.9,3424.6c-1227.6-879-2242.7-1604.9-2256.1-1614.5c-17.2-9.6-23-99.6-19.2-379.2l5.7-367.7L2734.9,2672
			c1235.3,882.9,2254.2,1606.8,2263.7,1606.8S6000.3,3574,7205,2712.2c1204.6-859.9,2217.8-1585.8,2252.2-1608.8l61.3-44.1
			l-1.9,369.6v369.6L7264.3,3407.4C6025.2,4292.2,5008.2,5018.1,5000.6,5020C4994.8,5021.9,3985.5,4303.7,2757.9,3424.6z"/>
		<path d="M3137.1,2329.2c-1018.9-735.4-1863.5-1346.4-1875-1357.9c-15.3-15.3-21.1-798.6-19.1-2784.7c0-1520.6,0-2811.5,1.9-2865.1
			V-4780h3753.8h3753.8l-3.8,2876.6l-5.8,2874.7L6875.5,2317.7C5849,3058.8,5004.4,3664,4998.7,3664
			C4992.9,3664,4156,3062.7,3137.1,2329.2z M4711.4-308v-871.4H3840h-871.4V-308v871.4H3840h871.4V-308z M7009.6-308v-871.4h-871.4
			h-871.4V-308v871.4h871.4h871.4V-308z M4711.4-2568v-871.4H3840h-871.4v871.4v871.4H3840h871.4V-2568z M7009.6-2568v-871.4h-871.4
			h-871.4v871.4v871.4h871.4h871.4V-2568z"/>
	</g>
</g>
<rect x="296.9" y="455.7" class="st0" width="174.3" height="174.3"/>
<rect x="526.7" y="455.7" class="st0" width="174.3" height="174.3"/>
<rect x="526.7" y="681.7" class="st0" width="174.3" height="174.3"/>
<rect x="296.9" y="681.7" class="st0" width="174.3" height="174.3"/>
</svg>
